<svg id="LDS_Elements" data-name="LDS Elements" xmlns="http://www.w3.org/2000/svg" width="100vw;" height="100vh;" xmlns:xlink="http://www.w3.org/1999/xlink" viewBox="0 0 481.93 463.98">
    <defs>
        <style>
        .cls-1,
        .cls-140,
        .cls-141,
        .cls-2 {
            fill: none;
        }

        .cls-140,
        .cls-141,
        .cls-2 {
            stroke: #000;
        }

        .cls-141,
        .cls-2 {
            stroke-miterlimit: 10;
        }

        .cls-2 {
            stroke-width: 1.2px;
        }

        .cls-16,
        .cls-3 {
            font-size: 8px;
        }

        .cls-15,
        .cls-16,
        .cls-20,
        .cls-3 {
            fill: #231f20;
        }

        .cls-20,
        .cls-3 {
            font-family: Mulish-Bold, Mulish;
            font-weight: 700;
        }

        .cls-4 {
            letter-spacing: -0.01em;
        }

        .cls-5 {
            letter-spacing: 0em;
        }

        .cls-6 {
            letter-spacing: -0.08em;
        }

        .cls-7 {
            letter-spacing: 0em;
        }

        .cls-8 {
            letter-spacing: -0.01em;
        }

        .cls-9 {
            letter-spacing: 0em;
        }

        .cls-10 {
            letter-spacing: -0.01em;
        }

        .cls-11 {
            letter-spacing: -0.01em;
        }

        .cls-12 {
            letter-spacing: 0em;
        }

        .cls-13,
        .cls-16 {
            font-family: Mulish-Regular, Mulish;
        }

        .cls-13 {
            font-weight: 400;
        }

        .cls-14 {
            letter-spacing: 0em;
        }

        .cls-17 {
            letter-spacing: -0.01em;
        }

        .cls-18 {
            letter-spacing: -0.01em;
        }

        .cls-19 {
            letter-spacing: 0em;
        }

        .cls-20 {
            font-size: 12px;
        }

        .cls-21 {
            letter-spacing: -0.01em;
        }

        .cls-22 {
            letter-spacing: 0em;
        }

        .cls-23 {
            isolation: isolate;
        }

        .cls-24 {
            clip-path: url(#clip-path);
        }

        .cls-25 {
            fill: #8fadff;
        }

        .cls-26 {
            fill: #8eacff;
        }

        .cls-27 {
            fill: #8dacff;
        }

        .cls-28 {
            fill: #8dabff;
        }

        .cls-29 {
            fill: #8cabff;
        }

        .cls-30 {
            fill: #8baaff;
        }

        .cls-31 {
            fill: #8aa9ff;
        }

        .cls-32 {
            fill: #89a9ff;
        }

        .cls-33 {
            fill: #89a8ff;
        }

        .cls-34 {
            fill: #88a8ff;
        }

        .cls-35 {
            fill: #87a7ff;
        }

        .cls-36 {
            fill: #86a6ff;
        }

        .cls-37 {
            fill: #85a6ff;
        }

        .cls-38 {
            fill: #85a5ff;
        }

        .cls-39 {
            fill: #84a5ff;
        }

        .cls-40 {
            fill: #83a4ff;
        }

        .cls-41 {
            fill: #82a3ff;
        }

        .cls-42 {
            fill: #81a3ff;
        }

        .cls-43 {
            fill: #80a2ff;
        }

        .cls-44 {
            fill: #7fa2ff;
        }

        .cls-45 {
            fill: #7fa1ff;
        }

        .cls-46 {
            fill: #90aeff;
        }

        .cls-47 {
            fill: #91aeff;
        }

        .cls-48 {
            fill: #91afff;
        }

        .cls-49 {
            fill: #92afff;
        }

        .cls-50 {
            fill: #93b0ff;
        }

        .cls-51 {
            fill: #94b1ff;
        }

        .cls-52 {
            fill: #95b1ff;
        }

        .cls-53 {
            fill: #95b2ff;
        }

        .cls-54 {
            fill: #96b2ff;
        }

        .cls-55 {
            fill: #97b3ff;
        }

        .cls-56 {
            fill: #98b3ff;
        }

        .cls-57 {
            fill: #98b4ff;
        }

        .cls-58 {
            fill: #99b4ff;
        }

        .cls-59 {
            fill: #9ab5ff;
        }

        .cls-60 {
            fill: #6a92ff;
        }

        .cls-61 {
            clip-path: url(#clip-path-2);
        }

        .cls-62 {
            fill: #ff918f;
        }

        .cls-63 {
            fill: #ff908f;
        }

        .cls-64 {
            fill: #ff8f8e;
        }

        .cls-65 {
            fill: #ff8f8d;
        }

        .cls-66 {
            fill: #ff8e8d;
        }

        .cls-67 {
            fill: #ff8d8c;
        }

        .cls-68 {
            fill: #ff8d8b;
        }

        .cls-69 {
            fill: #ff8c8b;
        }

        .cls-70 {
            fill: #ff8b8a;
        }

        .cls-71 {
            fill: #ff8b89;
        }

        .cls-72 {
            fill: #ff8a89;
        }

        .cls-73 {
            fill: #ff8988;
        }

        .cls-74 {
            fill: #ff8987;
        }

        .cls-75 {
            fill: #ff8887;
        }

        .cls-76 {
            fill: #ff8786;
        }

        .cls-77 {
            fill: #ff8785;
        }

        .cls-78 {
            fill: #ff8685;
        }

        .cls-79 {
            fill: #ff8584;
        }

        .cls-80 {
            fill: #ff8583;
        }

        .cls-81 {
            fill: #ff8483;
        }

        .cls-82 {
            fill: #ff8382;
        }

        .cls-83 {
            fill: #ff8381;
        }

        .cls-84 {
            fill: #ff8281;
        }

        .cls-85 {
            fill: #ff8280;
        }

        .cls-86 {
            fill: #ff817f;
        }

        .cls-87 {
            fill: #ff807f;
        }

        .cls-88 {
            fill: #ff9190;
        }

        .cls-89 {
            fill: #ff9291;
        }

        .cls-90 {
            fill: #ff9391;
        }

        .cls-91 {
            fill: #ff9392;
        }

        .cls-92 {
            fill: #ff9493;
        }

        .cls-93 {
            fill: #ff9593;
        }

        .cls-94 {
            fill: #ff9594;
        }

        .cls-95 {
            fill: #ff9695;
        }

        .cls-96 {
            fill: #ff9795;
        }

        .cls-97 {
            fill: #ff9796;
        }

        .cls-98 {
            fill: #ff9897;
        }

        .cls-99 {
            fill: #ff9998;
        }

        .cls-100 {
            fill: #ff9a99;
        }

        .cls-101 {
            fill: #ff9b9a;
        }

        .cls-102 {
            fill: #ff6b6a;
        }

        .cls-103 {
            clip-path: url(#clip-path-3);
        }

        .cls-104 {
            fill: #92f2d8;
        }

        .cls-105 {
            fill: #91f2d8;
        }

        .cls-106 {
            fill: #90f1d8;
        }

        .cls-107 {
            fill: #8ff1d8;
        }

        .cls-108 {
            fill: #8ff1d7;
        }

        .cls-109 {
            fill: #8ef1d7;
        }

        .cls-110 {
            fill: #8df1d7;
        }

        .cls-111 {
            fill: #8cf1d6;
        }

        .cls-112 {
            fill: #8bf1d6;
        }

        .cls-113 {
            fill: #8af1d6;
        }

        .cls-114 {
            fill: #8af1d5;
        }

        .cls-115 {
            fill: #89f1d5;
        }

        .cls-116 {
            fill: #88f1d5;
        }

        .cls-117 {
            fill: #88f0d5;
        }

        .cls-118 {
            fill: #87f0d5;
        }

        .cls-119 {
            fill: #86f0d4;
        }

        .cls-120 {
            fill: #85f0d4;
        }

        .cls-121 {
            fill: #84f0d4;
        }

        .cls-122 {
            fill: #84f0d3;
        }

        .cls-123 {
            fill: #83f0d3;
        }

        .cls-124 {
            fill: #82f0d3;
        }

        .cls-125 {
            fill: #93f2d9;
        }

        .cls-126 {
            fill: #94f2d9;
        }

        .cls-127 {
            fill: #95f2d9;
        }

        .cls-128 {
            fill: #95f2da;
        }

        .cls-129 {
            fill: #96f2da;
        }

        .cls-130 {
            fill: #97f2da;
        }

        .cls-131 {
            fill: #98f2db;
        }

        .cls-132 {
            fill: #99f3db;
        }

        .cls-133 {
            fill: #9af3db;
        }

        .cls-134 {
            fill: #9bf3dc;
        }

        .cls-135 {
            fill: #9cf3dc;
        }

        .cls-136 {
            fill: #6dedcb;
        }

        .cls-137 {
            letter-spacing: 0em;
        }

        .cls-138 {
            letter-spacing: 0em;
        }

        .cls-139 {
            letter-spacing: -0.01em;
        }

        .cls-140 {
            stroke-linecap: round;
            stroke-linejoin: round;
        }

        .cls-140,
        .cls-141 {
            stroke-width: 1.2px;
        }

        .cls-142 {
            fill: #ff5957;
        }

        .cls-143 {
            fill: #5784ff;
        }

        .cls-144 {
            fill: #5bebc5;
        }

        .cls-145 {
            letter-spacing: -0.01em;
        }

        .cls-146 {
            letter-spacing: -0.01em;
        }

        .cls-147 {
            letter-spacing: 0em;
        }

        .cls-148 {
            letter-spacing: 0.01em;
        }

        .cls-149 {
            letter-spacing: 0em;
        }

        .cls-150 {
            letter-spacing: 0.01em;
        }
        </style>
        <clipPath id="clip-path">
            <path class="cls-1" d="M218.43,202.08l0,17.07c0,3-2,6-5.92,8.27-7.92,4.61-20.81,4.61-28.79,0-4-2.32-6-5.36-6-8.4l.05-17.06c0,3,2,6.08,6,8.39,8,4.61,20.86,4.61,28.79,0C216.46,208.07,218.43,205.08,218.43,202.08Z" />
        </clipPath>
        <clipPath id="clip-path-2">
            <path class="cls-1" d="M259.14,202.08l-.05,17.06c0,3-2,6-5.91,8.28-7.93,4.61-20.81,4.6-28.79,0-4-2.32-6-5.36-6-8.39l.05-17.07c0,3,2,6.08,6,8.39,8,4.61,20.86,4.61,28.79,0C257.17,208.07,259.13,205.07,259.14,202.08Z" />
        </clipPath>
        <clipPath id="clip-path-3">
            <path class="cls-1" d="M238.79,176.5l0,17.07c0,3-2,6-5.92,8.28-7.92,4.6-20.81,4.61-28.78,0-4-2.32-6-5.36-6-8.39l.05-17.07c0,3,2,6.08,6,8.39,8,4.61,20.86,4.6,28.78,0C236.81,182.49,238.78,179.5,238.79,176.5Z" />
        </clipPath>
    </defs>
    <g id="Anatomie">
        <rect class="cls-2" x="77.28" y="420.61" width="282.26" height="35.2" />
        <rect class="cls-2" x="77.28" y="93.21" width="282.26" height="282.26" /><text class="cls-3" transform="translate(169.13 440.54)">Vision, <tspan class="cls-4" x="27.69" y="0">v</tspan>
            <tspan class="cls-5" x="31.97" y="0">alues &amp; principles</tspan>
        </text><text class="cls-3" transform="translate(171.91 315.25)">
            <tspan class="cls-6">T</tspan>
            <tspan x="4.31" y="0">ool</tspan>
            <tspan class="cls-7" x="15.86" y="0">s</tspan>
            <tspan x="19.83" y="0">, ritual</tspan>
            <tspan class="cls-8" x="44.07" y="0">s</tspan>
            <tspan class="cls-9" x="48.04" y="0">, m</tspan>
            <tspan class="cls-10" x="59.43" y="0">e</tspan>
            <tspan x="63.76" y="0">thods &amp;</tspan>
            <tspan x="27.71" y="12">p</tspan>
            <tspan class="cls-11" x="32.67" y="12">r</tspan>
            <tspan x="35.72" y="12">ocesses</tspan>
        </text><text class="cls-3" transform="translate(176.45 252.36)">Single Sou<tspan class="cls-11" x="40.35" y="0">r</tspan>
            <tspan x="43.41" y="0">ce </tspan>
            <tspan class="cls-12" x="54.01" y="0">o</tspan>
            <tspan class="cls-9" x="58.73" y="0">f </tspan>
            <tspan class="cls-6" x="63.85" y="0">T</tspan>
            <tspan x="68.17" y="0">ruth</tspan>
            <tspan class="cls-13">
                <tspan class="cls-7" x="-13.37" y="12">f</tspan>
                <tspan x="-10.72" y="12">or guideline</tspan>
                <tspan class="cls-8" x="32.19" y="12">s</tspan>
                <tspan x="36.12" y="12">, UI component</tspan>
                <tspan class="cls-8" x="91.51" y="12">s</tspan>
                <tspan class="cls-9" x="95.43" y="12">,</tspan>
                <tspan x="21.86" y="24">and ass</tspan>
                <tspan class="cls-14" x="50.96" y="24">e</tspan>
                <tspan x="55.29" y="24">ts</tspan>
            </tspan>
        </text>
        <path class="cls-15" d="M176.64,11.3V5.61h3.73v.82h-2.71V8h2.55v.82h-2.55V11.3Z" />
        <path class="cls-15" d="M184.53,10.85a2.09,2.09,0,0,1-.71.38,3.07,3.07,0,0,1-.85.13,2.38,2.38,0,0,1-1.13-.25,1.75,1.75,0,0,1-.73-.72,2.34,2.34,0,0,1-.26-1.12,2.41,2.41,0,0,1,.25-1.1,1.77,1.77,0,0,1,.69-.74,1.88,1.88,0,0,1,1-.27,1.8,1.8,0,0,1,1,.24,1.57,1.57,0,0,1,.62.7,2.42,2.42,0,0,1,.22,1.08v.15h-2.87V8.8H184l-.27.27a1.35,1.35,0,0,0-.23-.89.81.81,0,0,0-.68-.3.9.9,0,0,0-.75.34,1.58,1.58,0,0,0-.26,1,1.58,1.58,0,0,0,.3,1.06,1.09,1.09,0,0,0,.89.34,2.06,2.06,0,0,0,.65-.11,2.16,2.16,0,0,0,.58-.31Z" />
        <path class="cls-15" d="M188.92,10.85a2.19,2.19,0,0,1-.71.38,3.13,3.13,0,0,1-.85.13,2.4,2.4,0,0,1-1.14-.25,1.81,1.81,0,0,1-.73-.72,2.34,2.34,0,0,1-.25-1.12,2.41,2.41,0,0,1,.24-1.1,1.83,1.83,0,0,1,.69-.74,1.92,1.92,0,0,1,1-.27,1.85,1.85,0,0,1,1,.24,1.7,1.7,0,0,1,.62.7A2.57,2.57,0,0,1,189,9.18v.15h-2.87V8.8h2.28l-.28.27a1.41,1.41,0,0,0-.22-.89.83.83,0,0,0-.69-.3.86.86,0,0,0-.74.34,1.51,1.51,0,0,0-.27,1,1.58,1.58,0,0,0,.3,1.06,1.13,1.13,0,0,0,.9.34,2.05,2.05,0,0,0,.64-.11,2.22,2.22,0,0,0,.59-.31Z" />
        <path class="cls-15" d="M193.7,11.3h-1v-1l.09.14a1.2,1.2,0,0,1-.51.69,1.6,1.6,0,0,1-.9.25,1.71,1.71,0,0,1-.93-.26,1.76,1.76,0,0,1-.63-.74,2.59,2.59,0,0,1-.22-1.11,2.56,2.56,0,0,1,.22-1.11,1.73,1.73,0,0,1,.63-.73,1.71,1.71,0,0,1,.93-.25,1.6,1.6,0,0,1,.9.25,1.26,1.26,0,0,1,.51.69l-.11.12V5.41h1Zm-2-.71a.9.9,0,0,0,.76-.34,1.52,1.52,0,0,0,.28-1,1.46,1.46,0,0,0-.28-1,.91.91,0,0,0-.76-.35,1,1,0,0,0-.79.34,1.53,1.53,0,0,0-.28,1,1.62,1.62,0,0,0,.28,1A1,1,0,0,0,191.68,10.59Z" />
        <path class="cls-15" d="M194.78,11.3V5.41h1V8.22l-.09-.12a1.26,1.26,0,0,1,.51-.69,1.52,1.52,0,0,1,.88-.25,1.72,1.72,0,0,1,.94.25,1.73,1.73,0,0,1,.63.73,2.42,2.42,0,0,1,.23,1.11,2.45,2.45,0,0,1-.23,1.11,1.76,1.76,0,0,1-.63.74,1.72,1.72,0,0,1-.94.26,1.52,1.52,0,0,1-.88-.25,1.2,1.2,0,0,1-.51-.69l.09-.14v1Zm2.05-.71a.94.94,0,0,0,.77-.35,1.62,1.62,0,0,0,.27-1,1.53,1.53,0,0,0-.27-1,1,1,0,0,0-1.55,0,1.51,1.51,0,0,0-.27,1,1.58,1.58,0,0,0,.27,1A.93.93,0,0,0,196.83,10.59Z" />
        <path class="cls-15" d="M201.32,11.36a1.81,1.81,0,0,1-.94-.25,1.71,1.71,0,0,1-.63-.72,2.7,2.7,0,0,1-.22-1.1,2.6,2.6,0,0,1,.23-1.12,1.62,1.62,0,0,1,.62-.74,1.65,1.65,0,0,1,.94-.27,1.57,1.57,0,0,1,.89.25,1.25,1.25,0,0,1,.51.7l-.09.06V7.26h1v4h-1v-.91l.09,0a1.2,1.2,0,0,1-.51.69A1.57,1.57,0,0,1,201.32,11.36Zm.27-.77a.93.93,0,0,0,.77-.34,1.57,1.57,0,0,0,.27-1,1.58,1.58,0,0,0-.27-1,.93.93,0,0,0-.77-.34,1,1,0,0,0-.79.35,1.63,1.63,0,0,0-.28,1,1.52,1.52,0,0,0,.28,1A1,1,0,0,0,201.59,10.59Z" />
        <path class="cls-15" d="M206.52,11.36a2.34,2.34,0,0,1-1.09-.25,1.74,1.74,0,0,1-.7-.72,2.29,2.29,0,0,1-.25-1.1,2.34,2.34,0,0,1,.26-1.12,1.82,1.82,0,0,1,.73-.75,2.26,2.26,0,0,1,1.1-.26,2.62,2.62,0,0,1,.83.13,1.76,1.76,0,0,1,.66.38l-.29.7a2.1,2.1,0,0,0-.54-.31,1.7,1.7,0,0,0-.58-.11,1,1,0,0,0-.83.34,1.37,1.37,0,0,0-.31,1,1.44,1.44,0,0,0,.3,1,1.1,1.1,0,0,0,.85.33,1.44,1.44,0,0,0,.57-.11,1.88,1.88,0,0,0,.54-.32l.29.7a1.86,1.86,0,0,1-.68.38A3,3,0,0,1,206.52,11.36Z" />
        <path class="cls-15" d="M208.72,11.3V5.41h1V11.3Zm2.77,0-1.94-2.05,1.84-2h1.21l-2.08,2.21,0-.51,2.18,2.33Z" />
        <path class="cls-15" d="M213.64,12.37l-.41-.32a1.55,1.55,0,0,0,.36-.49,1.18,1.18,0,0,0,.1-.48l.26.22h-.79V10.18h1.12v.75a2,2,0,0,1-.14.74A2.18,2.18,0,0,1,213.64,12.37Z" />
        <path class="cls-15" d="M217.45,11.3V8.4c0-.18,0-.37,0-.57s0-.38-.05-.57h.94l.11,1-.11-.05a1.27,1.27,0,0,1,.47-.81,1.4,1.4,0,0,1,.84-.27h.22l.18.05v.91a1.35,1.35,0,0,0-.53-.1,1.14,1.14,0,0,0-.59.14.91.91,0,0,0-.34.39,1.2,1.2,0,0,0-.12.55V11.3Z" />
        <path class="cls-15" d="M224,10.85a2.09,2.09,0,0,1-.71.38,3.07,3.07,0,0,1-.85.13,2.33,2.33,0,0,1-1.13-.25,1.75,1.75,0,0,1-.73-.72,2.34,2.34,0,0,1-.26-1.12,2.29,2.29,0,0,1,.25-1.1,1.74,1.74,0,0,1,.68-.74,1.94,1.94,0,0,1,1-.27,1.8,1.8,0,0,1,1,.24,1.63,1.63,0,0,1,.62.7,2.42,2.42,0,0,1,.22,1.08v.15h-2.87V8.8h2.27l-.27.27a1.41,1.41,0,0,0-.23-.89.83.83,0,0,0-.68-.3.9.9,0,0,0-.75.34,1.58,1.58,0,0,0-.26,1,1.64,1.64,0,0,0,.29,1.06,1.13,1.13,0,0,0,.9.34,2,2,0,0,0,.64-.11,2.22,2.22,0,0,0,.59-.31Z" />
        <path class="cls-15" d="M228.76,13h-1V10.29l.12.13a1.21,1.21,0,0,1-.52.69,1.55,1.55,0,0,1-.89.25,1.83,1.83,0,0,1-.94-.25,1.71,1.71,0,0,1-.63-.72,2.7,2.7,0,0,1-.22-1.1,2.6,2.6,0,0,1,.23-1.12,1.7,1.7,0,0,1,.63-.74,1.64,1.64,0,0,1,.93-.27,1.55,1.55,0,0,1,.89.25,1.27,1.27,0,0,1,.52.7l-.08,0,.1-.8h.94a5.51,5.51,0,0,0-.06.57c0,.2,0,.39,0,.57Zm-2-2.44a.92.92,0,0,0,.77-.34,1.57,1.57,0,0,0,.27-1,1.58,1.58,0,0,0-.27-1,.92.92,0,0,0-.77-.34.93.93,0,0,0-.78.35,1.57,1.57,0,0,0-.28,1,1.46,1.46,0,0,0,.28,1A.93.93,0,0,0,226.74,10.59Z" />
        <path class="cls-15" d="M231.31,11.36a1.42,1.42,0,0,1-1.12-.42,1.77,1.77,0,0,1-.37-1.24V7.26h1V9.71a1,1,0,0,0,.18.65.72.72,0,0,0,.56.21.92.92,0,0,0,.7-.29,1.07,1.07,0,0,0,.26-.77V7.26h1v4h-1v-.83h.1a1.38,1.38,0,0,1-.53.67A1.49,1.49,0,0,1,231.31,11.36Z" />
        <path class="cls-15" d="M238.07,10.85a2,2,0,0,1-.7.38,3.13,3.13,0,0,1-.85.13,2.4,2.4,0,0,1-1.14-.25,1.81,1.81,0,0,1-.73-.72,2.34,2.34,0,0,1-.26-1.12,2.41,2.41,0,0,1,.25-1.1,1.83,1.83,0,0,1,.69-.74,1.92,1.92,0,0,1,1-.27,1.85,1.85,0,0,1,1,.24,1.7,1.7,0,0,1,.62.7,2.57,2.57,0,0,1,.22,1.08v.15h-2.87V8.8h2.28l-.28.27a1.41,1.41,0,0,0-.22-.89.83.83,0,0,0-.69-.3.86.86,0,0,0-.74.34,1.51,1.51,0,0,0-.27,1,1.58,1.58,0,0,0,.3,1.06,1.11,1.11,0,0,0,.9.34,2.05,2.05,0,0,0,.64-.11,2.22,2.22,0,0,0,.59-.31Z" />
        <path class="cls-15" d="M240.48,11.36a2.74,2.74,0,0,1-1.75-.51l.28-.7a2.45,2.45,0,0,0,.7.36,2.54,2.54,0,0,0,.78.12,1.06,1.06,0,0,0,.56-.12.37.37,0,0,0,.19-.34.35.35,0,0,0-.13-.29,1.44,1.44,0,0,0-.47-.19L240,9.54a1.62,1.62,0,0,1-.83-.4,1,1,0,0,1-.27-.73,1.14,1.14,0,0,1,.2-.65,1.33,1.33,0,0,1,.59-.44,2.14,2.14,0,0,1,.87-.16,2.53,2.53,0,0,1,.83.13,2.06,2.06,0,0,1,.7.38l-.29.69a2.28,2.28,0,0,0-.62-.35,2,2,0,0,0-.63-.11A.9.9,0,0,0,240,8a.39.39,0,0,0-.19.35.34.34,0,0,0,.11.28.88.88,0,0,0,.4.17L241,9a1.65,1.65,0,0,1,.88.41A1.1,1.1,0,0,1,241.7,11,2,2,0,0,1,240.48,11.36Z" />
        <path class="cls-15" d="M242.46,8V7.26h2.85V8Zm2.85,2.46v.79a2.14,2.14,0,0,1-.32.08l-.33,0a1.37,1.37,0,0,1-1-.39,1.5,1.5,0,0,1-.38-1.1V6.28l1-.34V9.82a.86.86,0,0,0,.09.43.51.51,0,0,0,.24.22.88.88,0,0,0,.33.06h.2Z" />
        <path class="cls-15" d="M247.48,11.36a2.74,2.74,0,0,1-1.75-.51l.28-.7a2.45,2.45,0,0,0,.7.36,2.54,2.54,0,0,0,.78.12,1.06,1.06,0,0,0,.56-.12.37.37,0,0,0,.19-.34.35.35,0,0,0-.13-.29,1.44,1.44,0,0,0-.47-.19L247,9.54a1.62,1.62,0,0,1-.83-.4,1,1,0,0,1-.27-.73,1.14,1.14,0,0,1,.2-.65,1.33,1.33,0,0,1,.59-.44,2.14,2.14,0,0,1,.87-.16,2.53,2.53,0,0,1,.83.13,2.06,2.06,0,0,1,.7.38l-.29.69a2.28,2.28,0,0,0-.62-.35,2,2,0,0,0-.63-.11A.9.9,0,0,0,247,8a.39.39,0,0,0-.19.35.34.34,0,0,0,.11.28.88.88,0,0,0,.4.17L248,9a1.65,1.65,0,0,1,.88.41A1.1,1.1,0,0,1,248.7,11,2,2,0,0,1,247.48,11.36Z" />
        <path class="cls-15" d="M253.92,11.36a2.65,2.65,0,0,1-1-.19,1.61,1.61,0,0,1-.68-.54,1.37,1.37,0,0,1-.25-.82,1.51,1.51,0,0,1,.37-1A3.51,3.51,0,0,1,253.52,8a6.34,6.34,0,0,0,.72-.42,1.46,1.46,0,0,0,.38-.35.69.69,0,0,0,.1-.37.55.55,0,0,0-.58-.58.69.69,0,0,0-.48.17.64.64,0,0,0-.18.47.63.63,0,0,0,.06.27,1,1,0,0,0,.18.3c.09.11.21.25.38.43l2,2a3.17,3.17,0,0,0,.58.46,2.92,2.92,0,0,0,.69.32l-.49.68a3.32,3.32,0,0,1-.76-.35,3.87,3.87,0,0,1-.59-.48l-2.23-2.32a4.58,4.58,0,0,1-.39-.47,1.64,1.64,0,0,1-.22-.44,1.23,1.23,0,0,1-.07-.42,1.25,1.25,0,0,1,.2-.7,1.3,1.3,0,0,1,.54-.47,1.92,1.92,0,0,1,.81-.17,1.5,1.5,0,0,1,1,.34,1.11,1.11,0,0,1,.39.89,1.34,1.34,0,0,1-.16.63,1.88,1.88,0,0,1-.51.56,5.07,5.07,0,0,1-.9.54,2.87,2.87,0,0,0-.59.38,1.14,1.14,0,0,0-.34.4,1,1,0,0,0-.1.47.76.76,0,0,0,.27.61,1.16,1.16,0,0,0,.74.22,1.57,1.57,0,0,0,1-.35,2.46,2.46,0,0,0,.71-1A4.06,4.06,0,0,0,256,7.87h.84a4.84,4.84,0,0,1-.26,1.41,3.57,3.57,0,0,1-.62,1.1,2.67,2.67,0,0,1-.89.72A2.45,2.45,0,0,1,253.92,11.36Z" />
        <path class="cls-15" d="M192.07,23.3V20.4c0-.18,0-.37,0-.57s0-.38-.05-.57H193l.11,1-.11-.05a1.27,1.27,0,0,1,.47-.81,1.4,1.4,0,0,1,.84-.27h.22l.18.05v.91a1.35,1.35,0,0,0-.53-.1,1.14,1.14,0,0,0-.59.14,1,1,0,0,0-.34.39,1.2,1.2,0,0,0-.12.55V23.3Z" />
        <path class="cls-15" d="M198.6,22.85a2.09,2.09,0,0,1-.71.38,3.07,3.07,0,0,1-.85.13,2.36,2.36,0,0,1-1.13-.25,1.75,1.75,0,0,1-.73-.72,2.34,2.34,0,0,1-.26-1.12,2.29,2.29,0,0,1,.25-1.1,1.71,1.71,0,0,1,.69-.74,1.88,1.88,0,0,1,1-.27,1.82,1.82,0,0,1,1,.24,1.57,1.57,0,0,1,.62.7,2.42,2.42,0,0,1,.22,1.08v.15H195.8V20.8h2.27l-.27.27a1.41,1.41,0,0,0-.23-.89.83.83,0,0,0-.68-.3.9.9,0,0,0-.75.34,1.58,1.58,0,0,0-.26,1,1.64,1.64,0,0,0,.29,1.06,1.13,1.13,0,0,0,.9.34,2,2,0,0,0,.64-.11,2.08,2.08,0,0,0,.59-.31Z" />
        <path class="cls-15" d="M203.38,25h-1V22.29l.12.13a1.26,1.26,0,0,1-.52.69,1.55,1.55,0,0,1-.89.25,1.83,1.83,0,0,1-.94-.25,1.71,1.71,0,0,1-.63-.72,2.7,2.7,0,0,1-.22-1.1,2.6,2.6,0,0,1,.23-1.12,1.7,1.7,0,0,1,.63-.74,1.64,1.64,0,0,1,.93-.27,1.55,1.55,0,0,1,.89.25,1.32,1.32,0,0,1,.52.7l-.08-.05.1-.8h.94a5.51,5.51,0,0,0-.06.57c0,.2,0,.39,0,.57Zm-2-2.44a.92.92,0,0,0,.77-.34,1.93,1.93,0,0,0,0-2,.92.92,0,0,0-.77-.34.93.93,0,0,0-.78.35,1.57,1.57,0,0,0-.28,1,1.46,1.46,0,0,0,.28,1A.93.93,0,0,0,201.36,22.59Z" />
        <path class="cls-15" d="M205.93,23.36a1.42,1.42,0,0,1-1.12-.42,1.77,1.77,0,0,1-.37-1.24V19.26h1v2.45a1,1,0,0,0,.18.65.72.72,0,0,0,.56.21.92.92,0,0,0,.7-.29,1.07,1.07,0,0,0,.26-.77V19.26h1v4h-1v-.83h.1a1.38,1.38,0,0,1-.53.67A1.49,1.49,0,0,1,205.93,23.36Z" />
        <path class="cls-15" d="M209.18,17.43h1.11v1h-1.11Zm0,5.87v-4h1v4Z" />
        <path class="cls-15" d="M211.3,23.3V20.4c0-.18,0-.37,0-.57a5.48,5.48,0,0,0,0-.57h.94l.12,1-.12-.05a1.27,1.27,0,0,1,.47-.81,1.4,1.4,0,0,1,.84-.27h.22l.18.05v.91a1.35,1.35,0,0,0-.53-.1,1.17,1.17,0,0,0-.59.14,1,1,0,0,0-.34.39,1.2,1.2,0,0,0-.12.55V23.3Z" />
        <path class="cls-15" d="M217.83,22.85a2.09,2.09,0,0,1-.71.38,3.07,3.07,0,0,1-.85.13,2.36,2.36,0,0,1-1.13-.25,1.75,1.75,0,0,1-.73-.72,2.34,2.34,0,0,1-.26-1.12,2.29,2.29,0,0,1,.25-1.1,1.77,1.77,0,0,1,.69-.74,1.88,1.88,0,0,1,1-.27,1.8,1.8,0,0,1,1,.24,1.57,1.57,0,0,1,.62.7,2.42,2.42,0,0,1,.22,1.08v.15H215V20.8h2.27l-.27.27a1.35,1.35,0,0,0-.23-.89.81.81,0,0,0-.68-.3.9.9,0,0,0-.75.34,1.58,1.58,0,0,0-.26,1,1.58,1.58,0,0,0,.3,1.06,1.09,1.09,0,0,0,.89.34,2.11,2.11,0,0,0,.65-.11,2.16,2.16,0,0,0,.58-.31Z" />
        <path class="cls-15" d="M218.74,23.3V20.4c0-.18,0-.37,0-.57a5.48,5.48,0,0,0,0-.57h.94l.09.8h-.09a1.35,1.35,0,0,1,.52-.67,1.42,1.42,0,0,1,.83-.24,1.3,1.3,0,0,1,.89.28,1.38,1.38,0,0,1,.42.87l-.19-.18a1.39,1.39,0,0,1,.54-.7,1.54,1.54,0,0,1,.9-.27,1.2,1.2,0,0,1,1,.41,1.9,1.9,0,0,1,.34,1.25V23.3h-1V20.85a1.14,1.14,0,0,0-.16-.68.56.56,0,0,0-.51-.22.79.79,0,0,0-.65.29,1.24,1.24,0,0,0-.24.81V23.3h-1V20.85a1.14,1.14,0,0,0-.16-.68.59.59,0,0,0-.52-.22.82.82,0,0,0-.66.29,1.24,1.24,0,0,0-.24.81V23.3Z" />
        <path class="cls-15" d="M229.41,22.85a2.09,2.09,0,0,1-.71.38,3.07,3.07,0,0,1-.85.13,2.33,2.33,0,0,1-1.13-.25,1.77,1.77,0,0,1-.74-.72,2.34,2.34,0,0,1-.25-1.12,2.29,2.29,0,0,1,.25-1.1,1.74,1.74,0,0,1,.68-.74,1.94,1.94,0,0,1,1-.27,1.85,1.85,0,0,1,1,.24,1.63,1.63,0,0,1,.62.7,2.42,2.42,0,0,1,.22,1.08v.15h-2.87V20.8h2.27l-.27.27a1.41,1.41,0,0,0-.23-.89.83.83,0,0,0-.69-.3.88.88,0,0,0-.74.34,1.52,1.52,0,0,0-.26,1,1.58,1.58,0,0,0,.29,1.06,1.13,1.13,0,0,0,.9.34,2,2,0,0,0,.64-.11,2.22,2.22,0,0,0,.59-.31Z" />
        <path class="cls-15" d="M230.32,23.3V20.4c0-.19,0-.38,0-.57a5.51,5.51,0,0,0-.06-.57h.95l.09.8-.09,0a1.48,1.48,0,0,1,.57-.7,1.7,1.7,0,0,1,.88-.23c1,0,1.44.55,1.44,1.66V23.3h-1V20.86a1,1,0,0,0-.19-.69.68.68,0,0,0-.57-.22,1,1,0,0,0-.74.29,1.1,1.1,0,0,0-.27.77V23.3Z" />
        <path class="cls-15" d="M234.64,20v-.75h2.85V20Zm2.85,2.46v.79a1.87,1.87,0,0,1-.32.08l-.33,0a1.39,1.39,0,0,1-1.05-.39,1.49,1.49,0,0,1-.37-1.1V18.28l1-.34v3.88a1,1,0,0,0,.08.43.51.51,0,0,0,.24.22.88.88,0,0,0,.33.06h.2Z" />
        <path class="cls-15" d="M239.66,23.36a2.74,2.74,0,0,1-1.75-.51l.28-.7a2.33,2.33,0,0,0,.7.36,2.54,2.54,0,0,0,.78.12,1.06,1.06,0,0,0,.56-.12.37.37,0,0,0,.19-.34.35.35,0,0,0-.13-.29,1.44,1.44,0,0,0-.47-.19l-.67-.15a1.62,1.62,0,0,1-.83-.4,1,1,0,0,1-.27-.73,1.07,1.07,0,0,1,.21-.65,1.25,1.25,0,0,1,.58-.44,2.14,2.14,0,0,1,.87-.16,2.53,2.53,0,0,1,.83.13,2.06,2.06,0,0,1,.7.38l-.29.69a2.28,2.28,0,0,0-.62-.35,2,2,0,0,0-.63-.11.93.93,0,0,0-.53.13.39.39,0,0,0-.19.35.34.34,0,0,0,.11.28.88.88,0,0,0,.41.17l.68.17a1.61,1.61,0,0,1,.87.41,1.05,1.05,0,0,1,.28.75,1,1,0,0,1-.45.87A2,2,0,0,1,239.66,23.36Z" /><text class="cls-3" transform="translate(373.08 264.44)">
            <tspan class="cls-6">T</tspan>
            <tspan class="cls-11" x="4.31" y="0">r</tspan>
            <tspan x="7.37" y="0">aining &amp;</tspan>
            <tspan x="0" y="12">communication</tspan>
        </text>
        <g id="Sync_Circle" data-name="Sync Circle">
            <line class="cls-2" x1="216.59" y1="125.56" x2="216.96" y2="125.56" />
            <path d="M208.76,131.32a.6.6,0,0,1,.19-.83l7.74-4.93L209,120.63a.6.6,0,1,1,.64-1l8.54,5.43a.6.6,0,0,1,0,1l-8.54,5.43a.55.55,0,0,1-.32.1A.61.61,0,0,1,208.76,131.32Z" />
            <path d="M228.05,337.36a.6.6,0,0,1-.18.83l-7.75,4.93,7.75,4.93a.6.6,0,1,1-.65,1l-8.54-5.44a.61.61,0,0,1,0-1l8.54-5.44a.62.62,0,0,1,.32-.09A.6.6,0,0,1,228.05,337.36Z" />
            <circle class="cls-2" cx="218.41" cy="234.34" r="108.78" />
        </g>
        <g id="Solid_Arrow" data-name="Solid Arrow">
            <line class="cls-2" x1="359.54" y1="234.34" x2="408.6" y2="234.34" />
            <path d="M400.39,240.1a.61.61,0,0,1,.19-.83l7.74-4.93-7.74-4.93a.61.61,0,0,1-.19-.83.6.6,0,0,1,.83-.18l8.54,5.43a.61.61,0,0,1,.28.51.62.62,0,0,1-.28.51l-8.54,5.43a.55.55,0,0,1-.32.1A.61.61,0,0,1,400.39,240.1Z" />
        </g>
        <g id="Solid_Arrow-2" data-name="Solid Arrow">
            <line class="cls-2" x1="218.41" y1="420.61" x2="218.41" y2="377.91" />
            <path d="M224.17,386.12a.61.61,0,0,1-.83-.19l-4.93-7.74-4.93,7.74a.6.6,0,1,1-1-.64l5.44-8.54a.6.6,0,0,1,1,0l5.44,8.54a.55.55,0,0,1,.1.32A.61.61,0,0,1,224.17,386.12Z" />
        </g>
        <g id="Solid_Arrow-3" data-name="Solid Arrow">
            <line class="cls-2" x1="216.59" y1="31.15" x2="216.59" y2="73.84" />
            <path d="M210.83,65.64a.61.61,0,0,1,.83.19l4.93,7.74,4.93-7.74a.61.61,0,0,1,.83-.19.6.6,0,0,1,.18.83L217.09,75a.6.6,0,0,1-1,0l-5.44-8.54a.62.62,0,0,1-.09-.32A.61.61,0,0,1,210.83,65.64Z" />
        </g><text class="cls-16" transform="translate(230.03 400.87)">
            <tspan class="cls-11">Pr</tspan>
            <tspan class="cls-17" x="7.94" y="0">o</tspan>
            <tspan x="12.47" y="0">vide the </tspan>
            <tspan class="cls-8" x="43.78" y="0">f</tspan>
            <tspan x="46.44" y="0">oundation</tspan>
        </text>
        <rect class="cls-2" x="77.27" y="75.49" width="282.26" height="17.71" />
        <line class="cls-2" x1="91.62" y1="80.3" x2="83.53" y2="88.4" />
        <line class="cls-2" x1="99.8" y1="80.3" x2="91.71" y2="88.4" />
        <line class="cls-2" x1="107.98" y1="80.3" x2="99.88" y2="88.4" />
        <line class="cls-2" x1="116.15" y1="80.3" x2="108.06" y2="88.4" />
        <line class="cls-2" x1="124.33" y1="80.3" x2="116.24" y2="88.4" />
        <line class="cls-2" x1="132.51" y1="80.3" x2="124.42" y2="88.4" />
        <line class="cls-2" x1="140.68" y1="80.3" x2="132.59" y2="88.4" />
        <line class="cls-2" x1="148.86" y1="80.3" x2="140.77" y2="88.4" />
        <line class="cls-2" x1="157.04" y1="80.3" x2="148.95" y2="88.4" />
        <line class="cls-2" x1="165.21" y1="80.3" x2="157.12" y2="88.4" />
        <line class="cls-2" x1="173.39" y1="80.3" x2="165.3" y2="88.4" />
        <line class="cls-2" x1="181.57" y1="80.3" x2="173.48" y2="88.4" />
        <line class="cls-2" x1="189.74" y1="80.3" x2="181.65" y2="88.4" />
        <line class="cls-2" x1="255.16" y1="80.3" x2="247.07" y2="88.4" />
        <line class="cls-2" x1="263.34" y1="80.3" x2="255.25" y2="88.4" />
        <line class="cls-2" x1="271.51" y1="80.3" x2="263.42" y2="88.4" />
        <line class="cls-2" x1="279.69" y1="80.3" x2="271.6" y2="88.4" />
        <line class="cls-2" x1="287.87" y1="80.3" x2="279.78" y2="88.4" />
        <line class="cls-2" x1="296.04" y1="80.3" x2="287.95" y2="88.4" />
        <line class="cls-2" x1="304.22" y1="80.3" x2="296.13" y2="88.4" />
        <line class="cls-2" x1="312.4" y1="80.3" x2="304.31" y2="88.4" />
        <line class="cls-2" x1="320.58" y1="80.3" x2="312.48" y2="88.4" />
        <line class="cls-2" x1="328.75" y1="80.3" x2="320.66" y2="88.4" />
        <line class="cls-2" x1="336.93" y1="80.3" x2="328.84" y2="88.4" />
        <line class="cls-2" x1="345.11" y1="80.3" x2="337.02" y2="88.4" />
        <line class="cls-2" x1="353.28" y1="80.3" x2="345.19" y2="88.4" /><text class="cls-3" transform="translate(195.71 86.68)">G<tspan class="cls-18" x="5.92" y="0">ov</tspan>
            <tspan class="cls-19" x="14.87" y="0">ernance</tspan>
        </text>
        <g id="Designsysteme">
            <polyline class="cls-2" points="57.56 455.81 34.33 455.81 34.33 76.25 57.56 76.25" /><text class="cls-20" transform="translate(15.58 307.55) rotate(-90)">Design <tspan class="cls-21" x="42.83" y="0">sy</tspan>
                <tspan class="cls-8" x="55.19" y="0">s</tspan>
                <tspan class="cls-22" x="61.14" y="0">tem</tspan>
            </text></g>
        <g class="cls-23">
            <g class="cls-23">
                <g class="cls-24">
                    <g class="cls-23">
                        <path class="cls-25" d="M218.43,202.08l0,17.07c0,.06,0,.12,0,.18l.05-17.07v-.18" />
                        <path class="cls-25" d="M218.43,202.26l-.05,17.07c0,.09,0,.19,0,.29l0-17.07c0-.1,0-.19,0-.29" />
                        <path class="cls-26" d="M218.42,202.55l0,17.07,0,.29,0-17.06,0-.3" />
                        <path class="cls-27" d="M218.39,202.85l0,17.06a2.54,2.54,0,0,1,0,.29l0-17.06c0-.1,0-.2,0-.29" />
                        <path class="cls-28" d="M218.35,203.14l0,17.06a2.5,2.5,0,0,1-.05.29l.05-17.06c0-.1,0-.2,0-.29" />
                        <path class="cls-29" d="M218.3,203.43l-.05,17.06-.06.29,0-17.07a2.86,2.86,0,0,0,.07-.28" />
                        <path class="cls-30" d="M218.23,203.71l0,17.07-.08.29,0-17.07c0-.1.05-.19.07-.29" />
                        <path class="cls-30" d="M218.16,204l0,17.07-.09.28,0-17.06.09-.29" />
                        <path class="cls-31" d="M218.07,204.29l0,17.06c0,.1-.06.19-.1.29l.05-17.07.1-.28" />
                        <path class="cls-32" d="M218,204.57l-.05,17.07c0,.09-.07.19-.11.29l0-17.07.12-.29" />
                        <path class="cls-33" d="M217.85,204.86l0,17.07-.13.28,0-17.06.12-.29" />
                        <path class="cls-34" d="M217.73,205.15l0,17.06c-.05.1-.09.2-.14.29l0-17.06.15-.29" />
                        <path class="cls-35" d="M217.58,205.44l0,17.06-.16.3.05-17.07.15-.29" />
                        <path class="cls-35" d="M217.43,205.73l-.05,17.07-.18.29.05-17.06.18-.3" />
                        <path class="cls-36" d="M217.25,206l-.05,17.06c-.06.1-.12.2-.19.3l.05-17.07.19-.29" />
                        <path class="cls-37" d="M217.06,206.32,217,223.39l-.21.31,0-17.07.21-.31" />
                        <path class="cls-38" d="M216.85,206.63l0,17.07-.24.31.05-17.07.24-.31" />
                        <path class="cls-39" d="M216.61,206.94,216.56,224l-.25.31,0-17.07a3.88,3.88,0,0,0,.26-.31" />
                        <path class="cls-40" d="M216.35,207.25l0,17.07c-.1.12-.2.23-.31.34l.05-17.07a3.17,3.17,0,0,0,.3-.34" />
                        <path class="cls-40" d="M216.05,207.59,216,224.66c-.1.12-.21.23-.32.34l0-17.06c.11-.12.22-.23.32-.35" />
                        <path class="cls-41" d="M215.73,207.94l0,17.06c-.12.13-.25.25-.38.37l0-17.07.38-.36" />
                        <path class="cls-42" d="M215.35,208.3l0,17.07-.44.39,0-17.07.44-.39" />
                        <path class="cls-42" d="M214.91,208.69l0,17.07-.53.42,0-17.06.53-.43" />
                        <path class="cls-43" d="M214.38,209.12l0,17.06c-.21.16-.42.32-.64.47l.05-17.07.64-.46" />
                        <path class="cls-44" d="M213.74,209.58l-.05,17.07c-.31.21-.63.42-1,.62l.05-17.06c.34-.21.66-.41,1-.63" />
                        <path class="cls-45" d="M212.77,210.21l-.05,17.06-.25.15a22.81,22.81,0,0,1-4.46,2l.05-17.06a23.1,23.1,0,0,0,4.46-2,2,2,0,0,0,.25-.14" />
                        <path class="cls-44" d="M208.06,212.32,208,229.38c-.41.14-.83.26-1.25.38l0-17.07,1.26-.37" />
                        <path class="cls-43" d="M206.8,212.69l0,17.07-1,.25,0-17.06,1-.26" />
                        <path class="cls-42" d="M205.79,213l0,17.06c-.26.07-.53.13-.8.18l.05-17.07.8-.17" />
                        <path class="cls-42" d="M205,213.12l-.05,17.07c-.26.05-.52.11-.78.15l.05-17.06.78-.16" />
                        <path class="cls-41" d="M204.21,213.28l-.05,17.06-.69.12.05-17.07.69-.11" />
                        <path class="cls-40" d="M203.52,213.39l-.05,17.07-.68.1,0-17.07.69-.1" />
                        <path class="cls-40" d="M202.83,213.49l0,17.07-.62.08.05-17.07.61-.08" />
                        <path class="cls-39" d="M202.22,213.57l-.05,17.07-.61.06.05-17.06.61-.07" />
                        <path class="cls-38" d="M201.61,213.64l-.05,17.06-.59.06.05-17.07.59-.05" />
                        <path class="cls-37" d="M201,213.69,201,230.76l-.56,0,.05-17.07.56,0" />
                        <path class="cls-36" d="M200.46,213.73l-.05,17.07-.56,0,0-17.06.57,0" />
                        <path class="cls-35" d="M199.89,213.77l0,17.06-.55,0,0-17.07.54,0" />
                        <path class="cls-35" d="M199.35,213.79l0,17.07h-.53l0-17.07h.53" />
                        <path class="cls-34" d="M198.82,213.8l0,17.07h-.53l0-17.07h.53" />
                        <path class="cls-33" d="M198.29,213.81l0,17.07h-.51l.05-17.06h.51" />
                        <path class="cls-32" d="M197.78,213.81l-.05,17.06h-.51l.05-17.06h.51" />
                        <path class="cls-31" d="M197.27,213.8l-.05,17.06h-.51l0-17.07.51,0" />
                        <path class="cls-30" d="M196.76,213.78l0,17.07-.5,0,0-17.07.5,0" />
                        <path class="cls-30" d="M196.26,213.76l0,17.07-.5,0,0-17.06.5,0" />
                        <path class="cls-29" d="M195.76,213.73l0,17.06-.49,0,0-17.07.5,0" />
                        <path class="cls-28" d="M195.26,213.69l0,17.07-.5,0,.05-17.06.49,0" />
                        <path class="cls-27" d="M194.77,213.65l-.05,17.06-.49-.05,0-17.07.5.06" />
                        <path class="cls-26" d="M194.27,213.59l0,17.07-.5-.06.05-17.06.49.05" />
                        <path class="cls-25" d="M193.78,213.54l-.05,17.06-.49-.06,0-17.07.5.07" />
                        <path class="cls-25" d="M193.28,213.47l0,17.07-.5-.08,0-17.07.5.08" />
                        <path class="cls-46" d="M192.78,213.39l0,17.07-.5-.08,0-17.07.49.08" />
                        <path class="cls-47" d="M192.29,213.31l0,17.07-.51-.09.05-17.07.51.09" />
                        <path class="cls-48" d="M191.78,213.22l-.05,17.07-.51-.1.05-17.07.51.1" />
                        <path class="cls-49" d="M191.27,213.12l-.05,17.07-.51-.12,0-17.06.52.11" />
                        <path class="cls-50" d="M190.75,213l0,17.06-.53-.12,0-17.07.52.13" />
                        <path class="cls-50" d="M190.23,212.88l0,17.07-.55-.14.05-17.06.55.13" />
                        <path class="cls-51" d="M189.68,212.75l-.05,17.06-.54-.15,0-17.06.54.15" />
                        <path class="cls-52" d="M189.14,212.6l0,17.06-.58-.17.05-17.07.58.18" />
                        <path class="cls-53" d="M188.56,212.42l-.05,17.07-.59-.19.05-17.07.59.19" />
                        <path class="cls-54" d="M188,212.23l-.05,17.07-.62-.22,0-17.06.63.21" />
                        <path class="cls-55" d="M187.34,212l0,17.06-.68-.25,0-17.07.67.26" />
                        <path class="cls-56" d="M186.67,211.76l0,17.07-.73-.3.05-17.07c.24.11.48.21.73.3" />
                        <path class="cls-57" d="M185.94,211.46l-.05,17.07-.81-.37,0-17.07c.26.13.54.25.81.37" />
                        <path class="cls-58" d="M185.13,211.09l0,17.07-1.06-.55,0-17.06c.34.18.7.37,1.06.54" />
                        <path class="cls-59" d="M184.07,210.55l0,17.06-.34-.19c-4-2.32-6-5.36-6-8.4l.05-17.06c0,3,2,6.08,6,8.39l.34.2" />
                    </g>
                </g>
            </g>
            <path class="cls-60" d="M212.42,193.68c8,4.61,8,12.07.1,16.67s-20.81,4.61-28.79,0-8-12.06-.09-16.67S204.45,189.08,212.42,193.68Z" />
        </g>
        <g class="cls-23">
            <g class="cls-23">
                <g class="cls-61">
                    <g class="cls-23">
                        <path class="cls-62" d="M259.14,202.08l-.05,17.06v.18l.05-17.06v-.18" />
                        <path class="cls-63" d="M259.14,202.26l-.05,17.06c0,.1,0,.2,0,.3l0-17.07c0-.1,0-.2,0-.29" />
                        <path class="cls-64" d="M259.12,202.55l0,17.07,0,.29.05-17.06c0-.1,0-.2,0-.3" />
                        <path class="cls-65" d="M259.1,202.85l-.05,17.06c0,.1,0,.2,0,.29l.05-17.06c0-.1,0-.2,0-.29" />
                        <path class="cls-66" d="M259.06,203.14,259,220.2c0,.1,0,.2-.05.29l.05-17.07c0-.09,0-.19.05-.28" />
                        <path class="cls-67" d="M259,203.42,259,220.49c0,.1,0,.19-.07.29l.05-17.07a2.46,2.46,0,0,0,.07-.29" />
                        <path class="cls-68" d="M258.94,203.71l-.05,17.07c0,.09,0,.19-.07.29l.05-17.07c0-.1.05-.19.07-.29" />
                        <path class="cls-69" d="M258.87,204l-.05,17.07-.09.28,0-17.07.09-.28" />
                        <path class="cls-70" d="M258.78,204.28l0,17.07c0,.1-.07.19-.1.29l.05-17.07c0-.1.07-.19.1-.29" />
                        <path class="cls-71" d="M258.68,204.57l-.05,17.07-.12.28.05-17.06.12-.29" />
                        <path class="cls-72" d="M258.56,204.86l-.05,17.06-.12.29,0-17.06c.05-.1.09-.2.13-.29" />
                        <path class="cls-73" d="M258.43,205.15l0,17.06-.15.29.05-17.07.14-.28" />
                        <path class="cls-74" d="M258.29,205.43l-.05,17.07-.15.29.05-17.06.15-.3" />
                        <path class="cls-75" d="M258.14,205.73l-.05,17.06-.18.3L258,206l.18-.29" />
                        <path class="cls-76" d="M258,206l0,17.07c-.06.1-.12.2-.19.3l0-17.07.19-.3" />
                        <path class="cls-77" d="M257.77,206.32l0,17.07-.21.3,0-17.06c.08-.1.15-.21.22-.31" />
                        <path class="cls-78" d="M257.55,206.63l0,17.06-.24.32.05-17.07.23-.31" />
                        <path class="cls-79" d="M257.32,206.94,257.27,224l-.26.31.05-17.07.26-.31" />
                        <path class="cls-80" d="M257.06,207.25,257,224.32c-.09.11-.19.23-.3.34l.05-17.07.3-.34" />
                        <path class="cls-81" d="M256.76,207.59l-.05,17.07-.32.34,0-17.07a3.51,3.51,0,0,0,.33-.34" />
                        <path class="cls-82" d="M256.43,207.93l0,17.07-.38.37.05-17.07.37-.37" />
                        <path class="cls-83" d="M256.06,208.3,256,225.37l-.44.38.05-17.06.44-.39" />
                        <path class="cls-84" d="M255.62,208.69l-.05,17.06c-.17.15-.35.29-.53.43l.05-17.07.53-.42" />
                        <path class="cls-85" d="M255.09,209.11,255,226.18c-.21.16-.42.32-.65.47l.05-17.07c.23-.15.44-.31.65-.47" />
                        <path class="cls-86" d="M254.44,209.58l-.05,17.07c-.3.21-.62.42-1,.62l0-17.06c.34-.21.66-.41,1-.63" />
                        <path class="cls-87" d="M253.48,210.21l0,17.06-.25.15a23.07,23.07,0,0,1-4.46,2l.05-17.07a22.48,22.48,0,0,0,4.46-2l.25-.14" />
                        <path class="cls-86" d="M248.77,212.31l-.05,17.07c-.41.14-.83.26-1.26.38l0-17.07c.43-.12.85-.24,1.26-.38" />
                        <path class="cls-85" d="M247.51,212.69l0,17.07-1,.25L246.5,213l1-.26" />
                        <path class="cls-84" d="M246.5,213,246.45,230l-.8.18,0-17.07.8-.17" />
                        <path class="cls-83" d="M245.7,213.12l0,17.07-.78.15,0-17.07c.27,0,.53-.09.79-.15" />
                        <path class="cls-82" d="M244.91,213.27l0,17.07-.69.12,0-17.07.68-.12" />
                        <path class="cls-81" d="M244.23,213.39l0,17.07-.69.1,0-17.07.69-.1" />
                        <path class="cls-80" d="M243.54,213.49l0,17.07-.61.08.05-17.07.61-.08" />
                        <path class="cls-79" d="M242.93,213.57l-.05,17.07-.61.06,0-17.06.61-.07" />
                        <path class="cls-78" d="M242.32,213.64l0,17.06-.59.06,0-17.07.59-.05" />
                        <path class="cls-77" d="M241.73,213.69l0,17.07-.56,0,0-17.07.56,0" />
                        <path class="cls-76" d="M241.17,213.73l0,17.07-.57,0,0-17.07.57,0" />
                        <path class="cls-75" d="M240.6,213.76l0,17.07-.54,0,.05-17.06.54,0" />
                        <path class="cls-74" d="M240.06,213.79,240,230.85l-.53,0,.05-17.07h.53" />
                        <path class="cls-73" d="M239.53,213.8l-.05,17.07H239l.05-17.06h.53" />
                        <path class="cls-72" d="M239,213.81,239,230.87h-.51l.05-17.07H239" />
                        <path class="cls-71" d="M238.49,213.8l-.05,17.07h-.51l0-17.06h.51" />
                        <path class="cls-70" d="M238,213.8l0,17.06h-.51l.05-17.07.51,0" />
                        <path class="cls-69" d="M237.47,213.78l-.05,17.07-.5,0,.05-17.06.5,0" />
                        <path class="cls-68" d="M237,213.76l-.05,17.06-.5,0,.05-17.06.5,0" />
                        <path class="cls-67" d="M236.47,213.73l-.05,17.06-.5,0,.05-17.07.5,0" />
                        <path class="cls-66" d="M236,213.69l-.05,17.07-.49,0,0-17.07.49.05" />
                        <path class="cls-65" d="M235.48,213.64l0,17.07-.5-.05,0-17.07.5,0" />
                        <path class="cls-64" d="M235,213.59l0,17.07-.49-.06.05-17.07.49.06" />
                        <path class="cls-63" d="M234.49,213.53l-.05,17.07-.5-.07.05-17.06.5.06" />
                        <path class="cls-62" d="M234,213.47l-.05,17.06-.5-.07.05-17.07.5.08" />
                        <path class="cls-88" d="M233.49,213.39l-.05,17.07-.49-.08,0-17.07.5.08" />
                        <path class="cls-89" d="M233,213.31l0,17.07-.51-.09.05-17.07.5.09" />
                        <path class="cls-90" d="M232.49,213.22l-.05,17.07-.51-.11,0-17.06.52.1" />
                        <path class="cls-91" d="M232,213.12l0,17.06-.52-.11.05-17.06.51.11" />
                        <path class="cls-92" d="M231.46,213l-.05,17.06-.52-.12,0-17.07.53.13" />
                        <path class="cls-93" d="M230.93,212.88l0,17.07-.55-.14,0-17.07.54.14" />
                        <path class="cls-94" d="M230.39,212.74l0,17.07-.54-.15,0-17.06.54.14" />
                        <path class="cls-95" d="M229.85,212.6l0,17.06-.58-.17.05-17.07.58.18" />
                        <path class="cls-96" d="M229.27,212.42l-.05,17.07-.59-.19.05-17.07.59.19" />
                        <path class="cls-97" d="M228.68,212.23l-.05,17.07-.63-.22.05-17.06.63.21" />
                        <path class="cls-98" d="M228.05,212,228,229.08l-.67-.25,0-17.07.67.26" />
                        <path class="cls-99" d="M227.38,211.76l0,17.07-.73-.3.05-17.07.73.3" />
                        <path class="cls-99" d="M226.65,211.46l-.05,17.07-.81-.38.05-17.06c.26.13.53.25.81.37" />
                        <path class="cls-100" d="M225.84,211.09l-.05,17.06c-.36-.17-.72-.35-1.06-.54l.05-17.07c.34.19.7.37,1.06.55" />
                        <path class="cls-101" d="M224.78,210.54l-.05,17.07-.34-.19c-4-2.32-6-5.36-6-8.39l.05-17.07c0,3,2,6.08,6,8.39l.34.19" />
                    </g>
                </g>
            </g>
            <path class="cls-102" d="M253.13,193.68c8,4.6,8,12.07.1,16.67s-20.82,4.61-28.79,0-8-12.06-.09-16.67S245.16,189.08,253.13,193.68Z" />
        </g>
        <g class="cls-23">
            <g class="cls-23">
                <g class="cls-103">
                    <g class="cls-23">
                        <path class="cls-104" d="M238.79,176.5l0,17.07v.17l0-17.06a1.09,1.09,0,0,0,0-.18" />
                        <path class="cls-105" d="M238.78,176.68l0,17.06c0,.1,0,.2,0,.3l.05-17.07a2.81,2.81,0,0,0,0-.29" />
                        <path class="cls-105" d="M238.77,177,238.72,194a2.58,2.58,0,0,1,0,.29l.05-17.06,0-.3" />
                        <path class="cls-106" d="M238.74,177.27l-.05,17.06a2.54,2.54,0,0,1,0,.29l0-17.06c0-.1,0-.2,0-.29" />
                        <path class="cls-107" d="M238.7,177.56l0,17.06a2.5,2.5,0,0,1-.05.29l.05-17.06c0-.1,0-.2,0-.29" />
                        <path class="cls-108" d="M238.65,177.85l-.05,17.06-.06.29.05-17.07.06-.28" />
                        <path class="cls-109" d="M238.59,178.13l-.05,17.07c0,.1,0,.19-.08.29l0-17.07.08-.29" />
                        <path class="cls-109" d="M238.51,178.42l0,17.07a1.52,1.52,0,0,1-.09.28l0-17.06.09-.29" />
                        <path class="cls-110" d="M238.42,178.71l0,17.06c0,.1-.06.19-.1.29l0-17.07c0-.09.07-.19.1-.28" />
                        <path class="cls-111" d="M238.32,179l0,17.07c0,.09-.07.19-.11.29l.05-17.07c0-.1.08-.19.11-.29" />
                        <path class="cls-111" d="M238.21,179.28l-.05,17.07c0,.09-.08.19-.13.29l.05-17.07c0-.1.09-.19.13-.29" />
                        <path class="cls-112" d="M238.08,179.57,238,196.64c0,.09-.09.19-.14.28l.05-17.06c.05-.1.09-.2.14-.29" />
                        <path class="cls-113" d="M237.94,179.86l-.05,17.06c0,.1-.1.2-.16.3l.05-17.07.16-.29" />
                        <path class="cls-114" d="M237.78,180.15l-.05,17.07a2.75,2.75,0,0,1-.17.29l0-17.06.18-.3" />
                        <path class="cls-115" d="M237.6,180.45l0,17.06-.2.3,0-17.07a2.9,2.9,0,0,0,.19-.29" />
                        <path class="cls-116" d="M237.41,180.74l0,17.07c-.06.1-.14.21-.21.31l0-17.07.21-.31" />
                        <path class="cls-117" d="M237.2,181.05l0,17.07-.24.31.05-17.06.24-.32" />
                        <path class="cls-118" d="M237,181.37l-.05,17.06c-.08.11-.17.21-.25.31l.05-17.06c.08-.11.17-.21.25-.31" />
                        <path class="cls-119" d="M236.71,181.68l-.05,17.06-.3.35,0-17.07c.11-.11.21-.23.31-.34" />
                        <path class="cls-119" d="M236.4,182l0,17.07-.33.34.05-17.07.32-.34" />
                        <path class="cls-120" d="M236.08,182.36,236,199.43l-.38.36,0-17.07.38-.36" />
                        <path class="cls-121" d="M235.7,182.72l0,17.07-.44.39,0-17.07.44-.39" />
                        <path class="cls-122" d="M235.26,183.11l0,17.07-.53.43,0-17.07c.18-.14.36-.28.53-.43" />
                        <path class="cls-123" d="M234.73,183.54l0,17.07-.64.47,0-17.07c.23-.15.44-.31.65-.47" />
                        <path class="cls-124" d="M234.08,184l0,17.07c-.31.21-.63.42-1,.62l.05-17.07c.34-.2.66-.41,1-.62" />
                        <path class="cls-124" d="M233.12,184.63l-.05,17.07-.25.15a23.07,23.07,0,0,1-4.46,2l0-17.07a23.07,23.07,0,0,0,4.46-2l.25-.15" />
                        <path class="cls-124" d="M228.41,186.74l0,17.07c-.41.13-.83.26-1.26.37l.05-17.06c.43-.12.84-.24,1.26-.38" />
                        <path class="cls-123" d="M227.15,187.12l-.05,17.06c-.33.1-.67.18-1,.26l0-17.07,1-.25" />
                        <path class="cls-122" d="M226.14,187.37l0,17.07-.8.18.05-17.07.8-.18" />
                        <path class="cls-121" d="M225.34,187.55l-.05,17.07-.79.15.05-17.07.79-.15" />
                        <path class="cls-120" d="M224.55,187.7l-.05,17.07-.68.12.05-17.07.68-.12" />
                        <path class="cls-119" d="M223.87,187.82l-.05,17.07-.69.1.05-17.07.69-.1" />
                        <path class="cls-119" d="M223.18,187.92,223.13,205l-.61.08,0-17.07.61-.08" />
                        <path class="cls-118" d="M222.57,188l0,17.07-.61.06,0-17.07.62-.06" />
                        <path class="cls-117" d="M222,188.06l0,17.07-.59.06,0-17.07.59-.06" />
                        <path class="cls-116" d="M221.36,188.12l0,17.07-.57,0,.05-17.07.56,0" />
                        <path class="cls-115" d="M220.8,188.16l-.05,17.07-.56,0,.05-17.07.56,0" />
                        <path class="cls-114" d="M220.24,188.19l-.05,17.07-.54,0,0-17.07.54,0" />
                        <path class="cls-113" d="M219.7,188.21l0,17.07-.53,0,0-17.07.53,0" />
                        <path class="cls-112" d="M219.17,188.23l0,17.07h-.53l0-17.07h.53" />
                        <path class="cls-111" d="M218.64,188.23l0,17.07h-.52l.05-17.07a4.51,4.51,0,0,0,.52,0" />
                        <path class="cls-111" d="M218.12,188.23l-.05,17.07h-.51l.05-17.07h.51" />
                        <path class="cls-110" d="M217.61,188.22l-.05,17.07h-.51l0-17.07h.51" />
                        <path class="cls-109" d="M217.1,188.21l0,17.07-.5,0,0-17.07.5,0" />
                        <path class="cls-109" d="M216.6,188.18l0,17.07-.49,0,0-17.07.5,0" />
                        <path class="cls-108" d="M216.1,188.15l0,17.07-.5,0,.05-17.06.49,0" />
                        <path class="cls-107" d="M215.61,188.12l-.05,17.06-.5,0,.05-17.07.5.05" />
                        <path class="cls-106" d="M215.11,188.07l-.05,17.07-.49,0,.05-17.07.49,0" />
                        <path class="cls-105" d="M214.62,188l-.05,17.07-.49-.06,0-17.07.5.06" />
                        <path class="cls-105" d="M214.12,188l0,17.07-.5-.07,0-17.06.49.06" />
                        <path class="cls-104" d="M213.63,187.9l0,17.06-.5-.07,0-17.07.5.08" />
                        <path class="cls-125" d="M213.13,187.82l0,17.07-.5-.08,0-17.07.5.08" />
                        <path class="cls-125" d="M212.63,187.74l0,17.07-.5-.09,0-17.07.5.09" />
                        <path class="cls-126" d="M212.13,187.65l0,17.07-.52-.11.05-17.06.52.1" />
                        <path class="cls-127" d="M211.61,187.55l-.05,17.06-.51-.11,0-17.07.51.12" />
                        <path class="cls-128" d="M211.1,187.43l0,17.07-.53-.12,0-17.07.53.12" />
                        <path class="cls-129" d="M210.57,187.31l0,17.07-.54-.14.05-17.07.54.14" />
                        <path class="cls-130" d="M210,187.17,210,204.24l-.54-.15.05-17.06.54.14" />
                        <path class="cls-130" d="M209.49,187l-.05,17.06-.58-.17,0-17.07.58.18" />
                        <path class="cls-131" d="M208.91,186.85l0,17.07-.59-.19,0-17.07.59.19" />
                        <path class="cls-132" d="M208.32,186.66l0,17.07-.62-.22,0-17.06.63.21" />
                        <path class="cls-132" d="M207.69,186.45l0,17.06-.68-.25.05-17.07.67.26" />
                        <path class="cls-133" d="M207,186.19,207,203.26l-.73-.3,0-17.07.73.3" />
                        <path class="cls-134" d="M206.29,185.89l0,17.07-.81-.37,0-17.07.81.37" />
                        <path class="cls-134" d="M205.48,185.52l0,17.07c-.36-.18-.71-.36-1.05-.55l0-17.06c.35.18.7.37,1.06.54" />
                        <path class="cls-135" d="M204.42,185l0,17.06-.34-.19c-4-2.32-6-5.36-6-8.39l.05-17.07c0,3,2,6.08,6,8.39l.33.2" />
                    </g>
                </g>
            </g>
            <path class="cls-136" d="M232.78,168.11c8,4.6,8,12.07.09,16.67s-20.81,4.61-28.78,0-8-12.07-.1-16.67S224.8,163.5,232.78,168.11Z" />
        </g><text class="cls-3" transform="translate(95.37 360.33)">Roles &amp; team <tspan class="cls-8" x="52.46" y="0">s</tspan>
            <tspan x="56.42" y="0">tru</tspan>
            <tspan class="cls-137" x="67.35" y="0">c</tspan>
            <tspan class="cls-138" x="71.41" y="0">tu</tspan>
            <tspan class="cls-139" x="79.2" y="0">r</tspan>
            <tspan x="82.25" y="0">es</tspan>
        </text>
        <path class="cls-140" d="M109,333.29a2.66,2.66,0,1,1-5.31,0,2.66,2.66,0,1,1,5.31,0Z" />
        <path class="cls-141" d="M106.3,338.06c-2.63,0-5.29,1.43-5.78,4.13a.5.5,0,0,0,.47.64H111.6a.5.5,0,0,0,.47-.64C111.58,339.49,108.92,338.06,106.3,338.06Z" />
        <path class="cls-140" d="M124.82,333.29a2.66,2.66,0,1,1-5.31,0,2.66,2.66,0,1,1,5.31,0Z" />
        <path class="cls-141" d="M122.16,338.06c-2.62,0-5.28,1.43-5.77,4.13a.5.5,0,0,0,.47.64h10.61a.5.5,0,0,0,.47-.64C127.45,339.49,124.79,338.06,122.16,338.06Z" />
        <path class="cls-140" d="M116.88,316.78a2.66,2.66,0,1,1-5.3,0,2.66,2.66,0,1,1,5.3,0Z" />
        <path class="cls-141" d="M114.23,321.55c-2.62,0-5.28,1.43-5.78,4.14a.5.5,0,0,0,.47.63h10.62a.5.5,0,0,0,.47-.63C119.51,323,116.85,321.55,114.23,321.55Z" />
    </g>
    <g id="Legend">
        <g id="Cyber">
            <circle class="cls-142" cx="406.15" cy="338.94" r="8.46" />
        </g>
        <g id="Blue">
            <circle class="cls-143" cx="406.15" cy="384.13" r="8.46" />
        </g>
        <g id="Neon">
            <circle class="cls-144" cx="406.15" cy="429.32" r="8.46" />
        </g><text id="Code" class="cls-3" transform="translate(424.58 336.47)">
            <tspan class="cls-145">C</tspan>
            <tspan x="5.39" y="0">ode</tspan>
            <tspan class="cls-13">
                <tspan x="0" y="12">S</tspan>
                <tspan class="cls-146" x="4.98" y="12">C</tspan>
                <tspan x="10.36" y="12">S</tspan>
                <tspan class="cls-11" x="15.34" y="12">S</tspan>
                <tspan class="cls-19" x="20.25" y="12">, JSON, </tspan>
                <tspan x="0" y="24">Rea</tspan>
                <tspan class="cls-147" x="14.7" y="24">c</tspan>
                <tspan class="cls-148" x="18.66" y="24">t</tspan>
                <tspan class="cls-5" x="21.58" y="24">, </tspan>
                <tspan class="cls-149" x="25.51" y="24">e</tspan>
                <tspan x="29.84" y="24">t</tspan>
                <tspan class="cls-150" x="32.64" y="24">c</tspan>
                <tspan x="36.68" y="24">.</tspan>
            </tspan>
        </text>
        <g id="Grafik">
            <path class="cls-15" d="M427.87,381.72a3.09,3.09,0,0,1-1.53-.35,2.33,2.33,0,0,1-1-1,3.85,3.85,0,0,1,0-3.12,2.36,2.36,0,0,1,1-1,3.07,3.07,0,0,1,1.49-.35,3.37,3.37,0,0,1,1.12.17,2.29,2.29,0,0,1,.88.49l-.35.76a3.1,3.1,0,0,0-.79-.46,2.55,2.55,0,0,0-.84-.14,1.65,1.65,0,0,0-1.32.53,2.28,2.28,0,0,0-.46,1.55,2.33,2.33,0,0,0,.47,1.58,1.72,1.72,0,0,0,1.38.53,3.87,3.87,0,0,0,.69-.05,3.46,3.46,0,0,0,.65-.18l-.24.39v-1.75h-1.23v-.74h2.16v2.74a2.79,2.79,0,0,1-.6.22,5,5,0,0,1-.71.13A4.77,4.77,0,0,1,427.87,381.72Z" />
            <path class="cls-15" d="M431,381.66v-2.9c0-.18,0-.37,0-.57s0-.38,0-.57h.94l.11,1-.11-.06a1.33,1.33,0,0,1,.47-.81,1.4,1.4,0,0,1,.84-.27l.22,0,.18,0v.91a1.35,1.35,0,0,0-.53-.1,1.05,1.05,0,0,0-.59.14.87.87,0,0,0-.34.39,1.2,1.2,0,0,0-.12.55v2.18Z" />
            <path class="cls-15" d="M435.66,381.71a1.71,1.71,0,0,1-.93-.25,1.65,1.65,0,0,1-.63-.72,2.51,2.51,0,0,1-.22-1.1,2.56,2.56,0,0,1,.22-1.11,1.79,1.79,0,0,1,.63-.75,1.63,1.63,0,0,1,.93-.26,1.6,1.6,0,0,1,.9.25,1.25,1.25,0,0,1,.51.7l-.09,0v-.9h1v4h-1v-.91l.09,0a1.2,1.2,0,0,1-.51.69A1.68,1.68,0,0,1,435.66,381.71Zm.28-.76a.91.91,0,0,0,.76-.35,1.53,1.53,0,0,0,.28-1,1.56,1.56,0,0,0-.28-1,.9.9,0,0,0-.76-.34,1,1,0,0,0-.79.35,1.55,1.55,0,0,0-.28,1,1.48,1.48,0,0,0,.28,1A1,1,0,0,0,435.94,381Z" />
            <path class="cls-15" d="M439,383.39v-4.63c0-.18,0-.37,0-.57s0-.38,0-.57h.94l.09.8-.06.05a1.21,1.21,0,0,1,.51-.7,1.52,1.52,0,0,1,.88-.25,1.61,1.61,0,0,1,.93.26,1.81,1.81,0,0,1,.64.75,2.56,2.56,0,0,1,.23,1.11,2.51,2.51,0,0,1-.23,1.1,1.65,1.65,0,0,1-.63.72,1.72,1.72,0,0,1-.94.25,1.59,1.59,0,0,1-.88-.24,1.16,1.16,0,0,1-.51-.69l.09-.13v2.74Zm2-2.44a.93.93,0,0,0,.76-.34,1.48,1.48,0,0,0,.28-1,1.55,1.55,0,0,0-.28-1,1,1,0,0,0-1.54,0,1.56,1.56,0,0,0-.27,1,1.53,1.53,0,0,0,.27,1A.92.92,0,0,0,441.09,381Z" />
            <path class="cls-15" d="M444,381.66v-5.89h1v2.67h-.12a1.5,1.5,0,0,1,.57-.69,1.61,1.61,0,0,1,.88-.23c1,0,1.44.55,1.44,1.66v2.48h-1v-2.44a1,1,0,0,0-.19-.69.68.68,0,0,0-.57-.22,1,1,0,0,0-.74.29,1.08,1.08,0,0,0-.27.77v2.29Z" />
            <path class="cls-15" d="M448.77,375.79h1.11v1h-1.11Zm0,5.87v-4h1v4Z" />
            <path class="cls-15" d="M452.73,381.71a2.2,2.2,0,0,1-1.09-.25,1.65,1.65,0,0,1-.71-.72,2.64,2.64,0,0,1,0-2.22,1.8,1.8,0,0,1,.73-.74,2.16,2.16,0,0,1,1.1-.26,2.57,2.57,0,0,1,.83.13,1.76,1.76,0,0,1,.66.38l-.28.7a2.38,2.38,0,0,0-.55-.32,1.65,1.65,0,0,0-.58-.1,1.07,1.07,0,0,0-.83.33,1.73,1.73,0,0,0,0,2,1.09,1.09,0,0,0,.85.34,1.65,1.65,0,0,0,.57-.11,2.07,2.07,0,0,0,.55-.32l.28.7a1.8,1.8,0,0,1-.67.37A2.76,2.76,0,0,1,452.73,381.71Z" />
            <path class="cls-15" d="M456.41,381.71a2.73,2.73,0,0,1-1.74-.5l.28-.7a2.33,2.33,0,0,0,.7.36,2.54,2.54,0,0,0,.78.12,1.06,1.06,0,0,0,.56-.12.38.38,0,0,0,.19-.34.35.35,0,0,0-.13-.29,1.25,1.25,0,0,0-.47-.19l-.67-.15a1.62,1.62,0,0,1-.83-.41,1,1,0,0,1-.27-.72,1.14,1.14,0,0,1,.2-.65,1.43,1.43,0,0,1,.59-.45,2.33,2.33,0,0,1,.87-.15,2.53,2.53,0,0,1,.83.13,2.06,2.06,0,0,1,.7.38l-.29.68a2.53,2.53,0,0,0-.62-.34,2,2,0,0,0-.63-.11.9.9,0,0,0-.53.13.39.39,0,0,0-.2.35.35.35,0,0,0,.12.28,1,1,0,0,0,.4.17l.68.17a1.65,1.65,0,0,1,.88.41,1.05,1.05,0,0,1,.28.75,1,1,0,0,1-.45.87A2,2,0,0,1,456.41,381.71Z" />
            <path class="cls-15" d="M425.28,393.66V388h3.52v.56h-2.87v2h2.71V391h-2.71v2.62Z" />
            <path class="cls-15" d="M429.64,387.93h.79v.74h-.79Zm.06,5.73v-4h.65v4Z" />
            <path class="cls-15" d="M433.38,395.44a3,3,0,0,1-1.59-.41l.11-.53a3.26,3.26,0,0,0,.71.31,3,3,0,0,0,.77.1,1.18,1.18,0,0,0,.87-.31,1.27,1.27,0,0,0,.3-.92v-1.09l.09-.1a1.59,1.59,0,0,1-.3.56,1.39,1.39,0,0,1-.5.36,1.6,1.6,0,0,1-.67.13,1.71,1.71,0,0,1-1.58-1,2.62,2.62,0,0,1,0-2.1,1.81,1.81,0,0,1,.64-.7,1.72,1.72,0,0,1,.94-.25,1.52,1.52,0,0,1,.94.28,1.34,1.34,0,0,1,.53.77l-.1-.09v-.87h.65v4a1.84,1.84,0,0,1-.46,1.36A1.87,1.87,0,0,1,433.38,395.44ZM433.3,393a1.13,1.13,0,0,0,.91-.38,1.9,1.9,0,0,0,0-2.14,1.14,1.14,0,0,0-.91-.39,1.19,1.19,0,0,0-.94.39,1.61,1.61,0,0,0-.34,1.07,1.58,1.58,0,0,0,.34,1.07A1.18,1.18,0,0,0,433.3,393Z" />
            <path class="cls-15" d="M436.44,393.66v-2.9c0-.18,0-.37,0-.56s0-.38-.05-.57H437l.07.84-.08,0a1.48,1.48,0,0,1,.5-.73,1.42,1.42,0,0,1,.85-.25,1.25,1.25,0,0,1,.9.29,1.38,1.38,0,0,1,.42.88l-.19-.11a1.32,1.32,0,0,1,.51-.77,1.47,1.47,0,0,1,.93-.29,1.21,1.21,0,0,1,1,.4,1.76,1.76,0,0,1,.34,1.19v2.53h-.65v-2.5a1.39,1.39,0,0,0-.2-.82.75.75,0,0,0-.63-.26,1,1,0,0,0-.8.35,1.42,1.42,0,0,0-.29.93v2.3H439v-2.5a1.32,1.32,0,0,0-.2-.82.78.78,0,0,0-.64-.26,1,1,0,0,0-.8.35,1.36,1.36,0,0,0-.29.93v2.3Z" />
            <path class="cls-15" d="M445,393.71a1.74,1.74,0,0,1-.94-.25,1.69,1.69,0,0,1-.62-.72,2.51,2.51,0,0,1-.22-1.1,2.66,2.66,0,0,1,.22-1.1,1.76,1.76,0,0,1,.63-.74,1.71,1.71,0,0,1,.93-.26,1.6,1.6,0,0,1,.94.27,1.31,1.31,0,0,1,.52.78l-.1.06v-1H447v4h-.64v-1l.1.05a1.32,1.32,0,0,1-.52.77A1.6,1.6,0,0,1,445,393.71Zm.13-.53a1.14,1.14,0,0,0,.92-.4,1.85,1.85,0,0,0,.31-1.15,1.77,1.77,0,0,0-.32-1.15,1.24,1.24,0,0,0-1.83,0,1.81,1.81,0,0,0-.33,1.15,1.76,1.76,0,0,0,.33,1.14A1.12,1.12,0,0,0,445.14,393.18Z" />
            <path class="cls-15" d="M448.49,394.58l-.3-.23a1.54,1.54,0,0,0,.29-.43,1.07,1.07,0,0,0,.07-.39l.19.13h-.58v-.83H449v.59a1.72,1.72,0,0,1-.1.6A1.63,1.63,0,0,1,448.49,394.58Z" />
            <path class="cls-15" d="M452.43,393.66h-.78l2.16-2.92.39-.49,1.66-2.29h.78l-2.07,2.79-.38.49Zm3.53,0-1.77-2.42-.38-.5L451.75,388h.78l1.67,2.29.37.5,2.16,2.91Z" />
            <path class="cls-15" d="M457.5,393.66V388h1.91a3.39,3.39,0,0,1,1.56.33,2.33,2.33,0,0,1,1,1,3.68,3.68,0,0,1,0,3.09,2.24,2.24,0,0,1-1,1,3.23,3.23,0,0,1-1.55.34Zm.66-.56h1.22a2.17,2.17,0,0,0,1.65-.58,2.37,2.37,0,0,0,.56-1.72,2,2,0,0,0-2.21-2.28h-1.22Z" />
            <path class="cls-15" d="M463.36,394.58l-.3-.23a1.3,1.3,0,0,0,.28-.43,1.07,1.07,0,0,0,.07-.39l.2.13H463v-.83h.83v.59a1.73,1.73,0,0,1-.11.6A1.59,1.59,0,0,1,463.36,394.58Z" />
            <path class="cls-15" d="M427.09,405.72a4.35,4.35,0,0,1-.83-.07,2.83,2.83,0,0,1-.71-.24A2.71,2.71,0,0,1,425,405l.25-.5a2.67,2.67,0,0,0,.86.51,3.24,3.24,0,0,0,1,.15,1.85,1.85,0,0,0,1-.26.89.89,0,0,0,.38-.76.66.66,0,0,0-.19-.48,1.55,1.55,0,0,0-.51-.29l-.73-.2c-.28-.06-.54-.13-.78-.2a2.79,2.79,0,0,1-.65-.3,1.27,1.27,0,0,1-.45-.44,1.39,1.39,0,0,1-.16-.68,1.48,1.48,0,0,1,.26-.86,1.67,1.67,0,0,1,.72-.58,2.63,2.63,0,0,1,1.1-.21,3.67,3.67,0,0,1,.75.08,3,3,0,0,1,.67.25,2.07,2.07,0,0,1,.54.39l-.25.5a2.7,2.7,0,0,0-.81-.5,2.44,2.44,0,0,0-.9-.16,1.67,1.67,0,0,0-1,.28.91.91,0,0,0-.38.78.77.77,0,0,0,.17.51,1.16,1.16,0,0,0,.47.3,5.86,5.86,0,0,0,.7.22l.79.2a3.67,3.67,0,0,1,.69.28,1.4,1.4,0,0,1,.48.42,1.24,1.24,0,0,1,.17.66,1.42,1.42,0,0,1-.25.85,1.73,1.73,0,0,1-.73.56A2.77,2.77,0,0,1,427.09,405.72Z" />
            <path class="cls-15" d="M430.18,405.66v-5.89h.65v5.89Zm2.71,0-2.19-2.06,2-2h.82l-2.24,2.15,0-.41,2.41,2.28Z" />
            <path class="cls-15" d="M437.53,405.18a1.87,1.87,0,0,1-.68.39,2.39,2.39,0,0,1-.84.14,2.27,2.27,0,0,1-1.08-.24,1.8,1.8,0,0,1-.7-.72,2.41,2.41,0,0,1-.24-1.12,2.37,2.37,0,0,1,.24-1.09,1.78,1.78,0,0,1,.67-.74,1.87,1.87,0,0,1,1-.26,1.73,1.73,0,0,1,.92.24,1.47,1.47,0,0,1,.58.67,2.44,2.44,0,0,1,.21,1.06v.12h-3v-.43h2.67l-.21.3a1.7,1.7,0,0,0-.27-1.08,1,1,0,0,0-.86-.38,1.12,1.12,0,0,0-.91.41,1.8,1.8,0,0,0-.33,1.14,1.73,1.73,0,0,0,.35,1.19,1.26,1.26,0,0,0,1,.4,1.89,1.89,0,0,0,.67-.12,1.93,1.93,0,0,0,.62-.35Z" />
            <path class="cls-15" d="M438,402.15v-.52h2.58v.52Zm2.57,2.93v.55a1.9,1.9,0,0,1-.56.08,1.24,1.24,0,0,1-.89-.31,1.3,1.3,0,0,1-.34-1V400.6l.65-.23v4a.94.94,0,0,0,.1.49.51.51,0,0,0,.25.25,1,1,0,0,0,.36.06h.21Z" />
            <path class="cls-15" d="M443.05,405.71a2,2,0,0,1-1-.25,1.64,1.64,0,0,1-.66-.72,2.38,2.38,0,0,1-.24-1.1,2.44,2.44,0,0,1,.24-1.1,1.87,1.87,0,0,1,.68-.74,2,2,0,0,1,1-.26,2.39,2.39,0,0,1,.79.14,1.57,1.57,0,0,1,.62.39l-.21.48a2.42,2.42,0,0,0-.58-.35,1.52,1.52,0,0,0-.59-.12,1.22,1.22,0,0,0-1,.41,1.69,1.69,0,0,0-.36,1.15,1.71,1.71,0,0,0,.35,1.14,1.22,1.22,0,0,0,1,.4,1.56,1.56,0,0,0,.59-.12,2.13,2.13,0,0,0,.58-.35l.21.48a1.63,1.63,0,0,1-.64.38A2.21,2.21,0,0,1,443.05,405.71Z" />
            <path class="cls-15" d="M445.32,405.66v-5.89H446v2.68l-.11.08a1.46,1.46,0,0,1,.56-.74,1.64,1.64,0,0,1,.91-.25c1,0,1.45.53,1.45,1.59v2.53h-.65v-2.5a1.25,1.25,0,0,0-.23-.82.88.88,0,0,0-.7-.26,1.22,1.22,0,0,0-.9.35,1.29,1.29,0,0,0-.33.93v2.3Z" />
            <path class="cls-15" d="M450.22,406.58l-.3-.23a1.54,1.54,0,0,0,.29-.43,1.34,1.34,0,0,0,.07-.39l.19.13h-.58v-.83h.82v.59a1.73,1.73,0,0,1-.11.6A1.59,1.59,0,0,1,450.22,406.58Z" />
            <path class="cls-15" d="M457.23,405.18a1.82,1.82,0,0,1-.67.39,2.49,2.49,0,0,1-.85.14,2.23,2.23,0,0,1-1.07-.24,1.68,1.68,0,0,1-.7-.72,2.41,2.41,0,0,1-.25-1.12,2.37,2.37,0,0,1,.24-1.09,1.85,1.85,0,0,1,.67-.74,1.92,1.92,0,0,1,1-.26,1.7,1.7,0,0,1,.92.24,1.49,1.49,0,0,1,.59.67,2.6,2.6,0,0,1,.2,1.06v.12h-3v-.43h2.67l-.2.3a1.7,1.7,0,0,0-.28-1.08,1,1,0,0,0-.85-.38,1.13,1.13,0,0,0-.92.41,1.8,1.8,0,0,0-.33,1.14,1.78,1.78,0,0,0,.35,1.19,1.26,1.26,0,0,0,1,.4,1.89,1.89,0,0,0,.67-.12,1.83,1.83,0,0,0,.62-.35Z" />
            <path class="cls-15" d="M457.69,402.15v-.52h2.59v.52Zm2.57,2.93v.55a1.31,1.31,0,0,1-.27.06,1.28,1.28,0,0,1-.29,0,1.24,1.24,0,0,1-.89-.31,1.3,1.3,0,0,1-.33-1V400.6l.65-.23v4a1.07,1.07,0,0,0,.09.49.51.51,0,0,0,.25.25,1,1,0,0,0,.36.06h.22Z" />
            <path class="cls-15" d="M462.75,405.71a2,2,0,0,1-1-.25,1.73,1.73,0,0,1-.67-.72,2.38,2.38,0,0,1-.24-1.1,2.44,2.44,0,0,1,.24-1.1,1.87,1.87,0,0,1,.68-.74,2.06,2.06,0,0,1,1-.26,2.3,2.3,0,0,1,.79.14,1.68,1.68,0,0,1,.63.39l-.22.48a2.24,2.24,0,0,0-.58-.35,1.48,1.48,0,0,0-.59-.12,1.22,1.22,0,0,0-1,.41,1.69,1.69,0,0,0-.36,1.15,1.66,1.66,0,0,0,.36,1.14,1.19,1.19,0,0,0,1,.4,1.52,1.52,0,0,0,.59-.12,2,2,0,0,0,.58-.35l.22.48a1.7,1.7,0,0,1-.64.38A2.23,2.23,0,0,1,462.75,405.71Z" />
            <path class="cls-15" d="M465,404.83h.82v.83H465Z" />
        </g>
        <g id="Text">
            <path class="cls-15" d="M426.53,426.85V422h-1.86v-.85h4.75V422h-1.85v4.85Z" />
            <path class="cls-15" d="M432.89,426.4a1.87,1.87,0,0,1-.7.37,2.8,2.8,0,0,1-.86.13,2.51,2.51,0,0,1-1.13-.24,1.81,1.81,0,0,1-.73-.72,2.34,2.34,0,0,1-.26-1.12,2.38,2.38,0,0,1,.25-1.1,1.92,1.92,0,0,1,.69-.75,1.89,1.89,0,0,1,1-.26,1.85,1.85,0,0,1,1,.24,1.7,1.7,0,0,1,.62.7,2.53,2.53,0,0,1,.22,1.08v.15h-2.88v-.53h2.27l-.27.27a1.35,1.35,0,0,0-.23-.89.8.8,0,0,0-.68-.3.86.86,0,0,0-.74.34,1.51,1.51,0,0,0-.27,1,1.58,1.58,0,0,0,.3,1.06,1.14,1.14,0,0,0,.89.34A2.06,2.06,0,0,0,432,426a2,2,0,0,0,.59-.32Z" />
            <path class="cls-15" d="M434.36,426.85h-1.19l1.7-2.08.57-.7,1-1.26h1.19l-1.59,2-.58.71Zm2.17,0-1.09-1.37-.57-.71-1.6-2h1.18l1,1.26.58.7,1.69,2.08Z" />
            <path class="cls-15" d="M437.68,423.56v-.75h2.85v.75Zm2.85,2.46v.79a2.14,2.14,0,0,1-.32.08h-.33a1.37,1.37,0,0,1-1.05-.38,1.5,1.5,0,0,1-.38-1.1v-3.6l1-.33v3.88a.89.89,0,0,0,.09.43.56.56,0,0,0,.24.22.88.88,0,0,0,.33.06h.2Z" />
            <path class="cls-15" d="M427.8,438.91a3,3,0,0,1-1.47-.34,2.39,2.39,0,0,1-.94-1,3.62,3.62,0,0,1-.32-1.58,3.56,3.56,0,0,1,.32-1.56,2.31,2.31,0,0,1,.93-1,2.85,2.85,0,0,1,1.43-.34,3.2,3.2,0,0,1,1.09.18,2.29,2.29,0,0,1,.87.54l-.26.5a2.74,2.74,0,0,0-.81-.5,2.31,2.31,0,0,0-.89-.16,1.83,1.83,0,0,0-1.48.6,3.2,3.2,0,0,0,0,3.51,1.92,1.92,0,0,0,1.53.6,3.74,3.74,0,0,0,.82-.08,3,3,0,0,0,.71-.2l-.16.34v-2h-1.41v-.52h2v2.64a2.64,2.64,0,0,1-.55.21,4.46,4.46,0,0,1-.69.13A4.68,4.68,0,0,1,427.8,438.91Z" />
            <path class="cls-15" d="M432.47,438.9a1.4,1.4,0,0,1-1.08-.39,1.7,1.7,0,0,1-.37-1.19v-2.5h.65v2.49a1.21,1.21,0,0,0,.22.8.86.86,0,0,0,.68.25,1.15,1.15,0,0,0,.87-.34,1.28,1.28,0,0,0,.33-.92v-2.28h.64v4h-.63V438l.1-.05a1.4,1.4,0,0,1-.54.73A1.58,1.58,0,0,1,432.47,438.9Z" />
            <path class="cls-15" d="M435.6,433.12h.79v.74h-.79Zm.06,5.73v-4h.65v4Z" />
            <path class="cls-15" d="M441.11,438.85h-.64v-1.08l.1.09a1.37,1.37,0,0,1-.52.77,1.53,1.53,0,0,1-.94.27,1.71,1.71,0,0,1-.93-.25,1.76,1.76,0,0,1-.63-.74,2.59,2.59,0,0,1-.22-1.11,2.44,2.44,0,0,1,.22-1.09,1.62,1.62,0,0,1,.62-.72,1.72,1.72,0,0,1,.94-.26,1.54,1.54,0,0,1,.94.28,1.37,1.37,0,0,1,.52.77l-.11.08V433h.65Zm-1.87-.48a1.1,1.1,0,0,0,.91-.4,1.85,1.85,0,0,0,.32-1.15,1.82,1.82,0,0,0-.32-1.14,1.1,1.1,0,0,0-.91-.41,1.17,1.17,0,0,0-.93.4,1.75,1.75,0,0,0-.33,1.13,1.82,1.82,0,0,0,.33,1.16A1.15,1.15,0,0,0,439.24,438.37Z" />
            <path class="cls-15" d="M445.66,438.37a1.82,1.82,0,0,1-.67.39,2.49,2.49,0,0,1-.85.14,2.25,2.25,0,0,1-1.07-.24,1.74,1.74,0,0,1-.7-.72,2.41,2.41,0,0,1-.24-1.12,2.37,2.37,0,0,1,.24-1.09A1.83,1.83,0,0,1,443,435a1.92,1.92,0,0,1,1-.26,1.68,1.68,0,0,1,.92.24,1.49,1.49,0,0,1,.59.67,2.45,2.45,0,0,1,.2,1.06v.12h-3v-.43h2.68l-.21.3a1.64,1.64,0,0,0-.28-1.08,1,1,0,0,0-.85-.38,1.12,1.12,0,0,0-.92.42,1.75,1.75,0,0,0-.33,1.13,1.78,1.78,0,0,0,.35,1.19,1.26,1.26,0,0,0,1,.4,2,2,0,0,0,.68-.12,2,2,0,0,0,.62-.35Z" />
            <path class="cls-15" d="M446.72,438.85V433h.65v5.89Z" />
            <path class="cls-15" d="M448.56,433.12h.79v.74h-.79Zm.06,5.73v-4h.65v4Z" />
            <path class="cls-15" d="M450.53,438.85V436c0-.18,0-.37,0-.56a3.66,3.66,0,0,0-.05-.57h.62l.07.84-.08.06a1.4,1.4,0,0,1,.56-.74,1.6,1.6,0,0,1,.9-.25c1,0,1.45.53,1.45,1.59v2.53h-.65v-2.5a1.26,1.26,0,0,0-.22-.82.88.88,0,0,0-.7-.26,1.19,1.19,0,0,0-.9.35,1.29,1.29,0,0,0-.34.93v2.3Z" />
            <path class="cls-15" d="M458.5,438.37a1.82,1.82,0,0,1-.67.39,2.49,2.49,0,0,1-.85.14,2.25,2.25,0,0,1-1.07-.24,1.68,1.68,0,0,1-.7-.72,2.41,2.41,0,0,1-.24-1.12,2.37,2.37,0,0,1,.24-1.09,1.83,1.83,0,0,1,.66-.74,1.92,1.92,0,0,1,1-.26,1.68,1.68,0,0,1,.92.24,1.49,1.49,0,0,1,.59.67,2.45,2.45,0,0,1,.2,1.06v.12h-3v-.43h2.68l-.21.3a1.64,1.64,0,0,0-.28-1.08,1,1,0,0,0-.85-.38,1.12,1.12,0,0,0-.92.42,1.75,1.75,0,0,0-.33,1.13A1.78,1.78,0,0,0,456,438a1.26,1.26,0,0,0,1,.4,2,2,0,0,0,.68-.12,2,2,0,0,0,.62-.35Z" />
            <path class="cls-15" d="M460.92,438.9a2.37,2.37,0,0,1-1.61-.51l.22-.49a2.16,2.16,0,0,0,1.41.49,1.25,1.25,0,0,0,.69-.16.51.51,0,0,0,.24-.45.46.46,0,0,0-.16-.38,1.2,1.2,0,0,0-.53-.23l-.68-.16a1.61,1.61,0,0,1-.78-.4,1,1,0,0,1-.27-.69,1,1,0,0,1,.19-.62,1.24,1.24,0,0,1,.53-.42,2.07,2.07,0,0,1,.82-.15,2.63,2.63,0,0,1,.8.13,1.84,1.84,0,0,1,.63.4l-.21.47a2.34,2.34,0,0,0-.59-.36,1.9,1.9,0,0,0-.63-.11,1.09,1.09,0,0,0-.67.17.51.51,0,0,0-.23.45.53.53,0,0,0,.14.39,1.07,1.07,0,0,0,.48.23l.68.17a1.65,1.65,0,0,1,.84.39,1,1,0,0,1,.26.7,1,1,0,0,1-.42.83A1.89,1.89,0,0,1,460.92,438.9Z" />
            <path class="cls-15" d="M463.71,439.77l-.3-.23a1.3,1.3,0,0,0,.28-.43,1,1,0,0,0,.08-.39l.19.13h-.59V438h.83v.58a1.73,1.73,0,0,1-.11.6A1.59,1.59,0,0,1,463.71,439.77Z" />
            <path class="cls-15" d="M426.74,450.9a1.74,1.74,0,0,1-.94-.25,1.58,1.58,0,0,1-.62-.72,2.86,2.86,0,0,1,0-2.2,1.76,1.76,0,0,1,.63-.74,1.71,1.71,0,0,1,.93-.26,1.6,1.6,0,0,1,.94.27,1.31,1.31,0,0,1,.52.78l-.1.06v-1h.64v4h-.64v-1l.1.05a1.32,1.32,0,0,1-.52.77A1.53,1.53,0,0,1,426.74,450.9Zm.13-.53a1.08,1.08,0,0,0,.91-.4,1.79,1.79,0,0,0,.32-1.15,1.83,1.83,0,0,0-.32-1.15,1.13,1.13,0,0,0-.91-.4,1.11,1.11,0,0,0-.92.42,2.08,2.08,0,0,0,0,2.28A1.12,1.12,0,0,0,426.87,450.37Z" />
            <path class="cls-15" d="M430,450.85V448c0-.18,0-.37,0-.56a5.51,5.51,0,0,0-.06-.57h.62l.07.84-.08.06a1.4,1.4,0,0,1,.56-.74,1.64,1.64,0,0,1,.91-.25q1.44,0,1.44,1.59v2.53h-.64v-2.5a1.25,1.25,0,0,0-.23-.82.88.88,0,0,0-.7-.26,1.22,1.22,0,0,0-.9.35,1.29,1.29,0,0,0-.33.93v2.3Z" />
            <path class="cls-15" d="M434.68,450.85V448c0-.18,0-.37,0-.56a5.51,5.51,0,0,0-.06-.57h.62l.07.84-.08.06a1.4,1.4,0,0,1,.56-.74,1.64,1.64,0,0,1,.91-.25q1.44,0,1.44,1.59v2.53h-.64v-2.5a1.25,1.25,0,0,0-.23-.82.88.88,0,0,0-.7-.26,1.22,1.22,0,0,0-.9.35,1.29,1.29,0,0,0-.33.93v2.3Z" />
            <path class="cls-15" d="M441,450.9a1.9,1.9,0,0,1-1-.25,1.73,1.73,0,0,1-.67-.72,2.79,2.79,0,0,1,0-2.22A1.73,1.73,0,0,1,440,447a1.91,1.91,0,0,1,1-.26,2,2,0,0,1,1,.26,1.77,1.77,0,0,1,.66.72,2.69,2.69,0,0,1,0,2.22,1.77,1.77,0,0,1-.66.72A1.94,1.94,0,0,1,441,450.9Zm0-.53a1.11,1.11,0,0,0,.92-.4,1.81,1.81,0,0,0,.32-1.15,1.83,1.83,0,0,0-.32-1.15,1.15,1.15,0,0,0-.92-.4,1.13,1.13,0,0,0-.91.4,1.77,1.77,0,0,0-.34,1.15,1.75,1.75,0,0,0,.33,1.15A1.1,1.1,0,0,0,441,450.37Z" />
            <path class="cls-15" d="M443.36,447.34v-.52h2.58v.52Zm2.57,2.93v.55l-.27.07h-.29a1.26,1.26,0,0,1-.9-.31,1.3,1.3,0,0,1-.33-1v-3.84l.65-.23v4a1.07,1.07,0,0,0,.09.49.55.55,0,0,0,.25.25,1,1,0,0,0,.36.07l.22,0Z" />
            <path class="cls-15" d="M448.27,450.9a1.72,1.72,0,0,1-.94-.25,1.52,1.52,0,0,1-.62-.72,2.86,2.86,0,0,1,0-2.2,1.76,1.76,0,0,1,.63-.74,1.71,1.71,0,0,1,.93-.26,1.6,1.6,0,0,1,.94.27,1.36,1.36,0,0,1,.52.78l-.1.06v-1h.64v4h-.64v-1l.1.05a1.37,1.37,0,0,1-.52.77A1.53,1.53,0,0,1,448.27,450.9Zm.13-.53a1.09,1.09,0,0,0,.91-.4,1.85,1.85,0,0,0,.32-1.15,1.83,1.83,0,0,0-.32-1.15,1.13,1.13,0,0,0-.91-.4,1.11,1.11,0,0,0-.93.42,2.13,2.13,0,0,0,0,2.28A1.13,1.13,0,0,0,448.4,450.37Z" />
            <path class="cls-15" d="M451,447.34v-.52h2.58v.52Zm2.57,2.93v.55l-.27.07H453a1.26,1.26,0,0,1-.9-.31,1.3,1.3,0,0,1-.33-1v-3.84l.65-.23v4a1.07,1.07,0,0,0,.09.49.55.55,0,0,0,.25.25,1,1,0,0,0,.36.07l.22,0Z" />
            <path class="cls-15" d="M454.26,445.12h.79v.74h-.79Zm.07,5.73v-4H455v4Z" />
            <path class="cls-15" d="M457.89,450.9a1.93,1.93,0,0,1-1-.25,1.64,1.64,0,0,1-.66-.72,2.69,2.69,0,0,1,0-2.22,1.64,1.64,0,0,1,.66-.72,2.07,2.07,0,0,1,2,0,1.77,1.77,0,0,1,.66.72,2.69,2.69,0,0,1,0,2.22,1.77,1.77,0,0,1-.66.72A1.94,1.94,0,0,1,457.89,450.9Zm0-.53a1.11,1.11,0,0,0,.92-.4,1.75,1.75,0,0,0,.32-1.15,1.83,1.83,0,0,0-.32-1.15,1.15,1.15,0,0,0-.92-.4,1.13,1.13,0,0,0-.91.4,1.77,1.77,0,0,0-.33,1.15A1.75,1.75,0,0,0,457,450,1.11,1.11,0,0,0,457.89,450.37Z" />
            <path class="cls-15" d="M460.81,450.85V448c0-.18,0-.37,0-.56a3.66,3.66,0,0,0-.05-.57h.62l.07.84-.08.06a1.4,1.4,0,0,1,.56-.74,1.6,1.6,0,0,1,.9-.25c1,0,1.45.53,1.45,1.59v2.53h-.65v-2.5a1.26,1.26,0,0,0-.22-.82.88.88,0,0,0-.7-.26,1.19,1.19,0,0,0-.9.35,1.29,1.29,0,0,0-.34.93v2.3Z" />
            <path class="cls-15" d="M466.85,450.9a2.37,2.37,0,0,1-1.61-.51l.21-.49a2.44,2.44,0,0,0,.66.37,2.29,2.29,0,0,0,.76.12,1.3,1.3,0,0,0,.69-.16.51.51,0,0,0,.24-.45.5.5,0,0,0-.16-.38,1.25,1.25,0,0,0-.53-.23l-.68-.16a1.52,1.52,0,0,1-.78-.4,1,1,0,0,1-.28-.69,1,1,0,0,1,.2-.62,1.19,1.19,0,0,1,.53-.42,2,2,0,0,1,.82-.15,2.63,2.63,0,0,1,.8.13,1.84,1.84,0,0,1,.63.4l-.22.47a2.13,2.13,0,0,0-.58-.36,1.9,1.9,0,0,0-.63-.11,1.09,1.09,0,0,0-.67.17.52.52,0,0,0-.24.45.5.5,0,0,0,.15.39,1.07,1.07,0,0,0,.48.23l.68.17a1.57,1.57,0,0,1,.83.39,1,1,0,0,1-.15,1.53A1.89,1.89,0,0,1,466.85,450.9Z" />
        </g>
    </g>
</svg>