<svg id="LdsFigRole" data-name="lds-fig-role" xmlns="http://www.w3.org/2000/svg" width="1220px" height="1060px" viewBox="0 0 610 580">
    <defs>
        <style>
        .cls-1 {
            fill: #fff;
        }

        .cls-2 {
            font-size: 12px;
        }

        .cls-2,
        .cls-4,
        .cls-5,
        .cls-6,
        .cls-7 {
            fill: #101827;
        }

        .cls-2,
        .cls-5,
        .cls-6 {
            font-family: ArialMT, Arial;
        }

        .cls-3 {
            letter-spacing: -0.07em;
        }

        .cls-4,
        .cls-5 {
            font-size: 20px;
        }

        .cls-4 {
            font-family: Arial-BoldMT, Arial;
            font-weight: 700;
        }

        .cls-6 {
            font-size: 14px;
        }

        .cls-8 {
            fill: none;
            stroke: #101827;
            stroke-linecap: square;
            stroke-miterlimit: 10;
            stroke-opacity: 0.5;
            stroke-width: 0.5px;
            stroke-dasharray: 2.2;
        }
        </style>
    </defs>
    <rect class="cls-1" width="610" height="580" /><text class="cls-2" transform="translate(133.63 188.64)">restrict<tspan x="0" y="36">dictate</tspan>
        <tspan x="0" y="72">filter</tspan>
        <tspan x="0" y="108">protect</tspan>
        <tspan x="0" y="144">deny</tspan>
        <tspan x="0" y="180">enforce</tspan>
    </text><text class="cls-2" transform="translate(440.85 188.64)">enable<tspan x="-54.02" y="36">listen and inspire</tspan>
        <tspan x="-6" y="72">channel</tspan>
        <tspan x="-3.32" y="108">explore</tspan>
        <tspan x="8.02" y="144">invite</tspan>
        <tspan x="-12.67" y="180">advocate</tspan>
    </text><text class="cls-2" transform="translate(133.63 448.9)">ensure the plan is <tspan x="0" y="18">being followed.</tspan></text><text class="cls-2" transform="translate(322.81 448.9)">promote the cross-pollination<tspan x="17.32" y="18">of ideas and experiences.</tspan></text><text class="cls-2" transform="translate(133.63 564.7)">adherence and consistenc<tspan class="cls-3" x="140.1" y="0">y</tspan>
        <tspan x="145.21" y="0">.</tspan>
    </text><text class="cls-2" transform="translate(356.13 564.7)">growth and innovation.</text><text class="cls-4" transform="translate(138.46 29.41)">Gatekeepers<tspan x="11.69" y="24">and rulers</tspan></text><text class="cls-4" transform="translate(367.54 29.41)">Catalysts<tspan x="-26.66" y="24">and facilitators</tspan></text><text class="cls-5" transform="translate(283.64 152.22)">They</text><text class="cls-5" transform="translate(289.22 414.05)">and</text><text class="cls-5" transform="translate(251.44 525.98)">Their goal is</text><text class="cls-6" transform="translate(345.86 81.05)">are cultivating a lean,<tspan x="9.34" y="19">adaptable system.</tspan></text>
    <path class="cls-7" d="M143.69,78.71l1.28.16a3.18,3.18,0,0,1-1.12,1.73,3.34,3.34,0,0,1-2.08.61,3.28,3.28,0,0,1-2.52-1,3.84,3.84,0,0,1-.94-2.75,4,4,0,0,1,.95-2.84,3.17,3.17,0,0,1,2.44-1,3.06,3.06,0,0,1,2.38,1A3.91,3.91,0,0,1,145,77.4c0,.08,0,.19,0,.33h-5.41a2.77,2.77,0,0,0,.67,1.83,2,2,0,0,0,1.52.64,1.94,1.94,0,0,0,1.16-.35A2.4,2.4,0,0,0,143.69,78.71Zm-4-2h4.06a2.44,2.44,0,0,0-.47-1.37,1.86,1.86,0,0,0-1.52-.71,2,2,0,0,0-1.43.56A2.28,2.28,0,0,0,139.65,76.72Z" />
    <path class="cls-7" d="M146.51,81.05V73.79h1.11v1a2.6,2.6,0,0,1,2.31-1.2,3,3,0,0,1,1.21.24,1.9,1.9,0,0,1,.82.62,2.34,2.34,0,0,1,.38.91,6.56,6.56,0,0,1,.07,1.19v4.47h-1.23V76.63a3.47,3.47,0,0,0-.14-1.12,1.24,1.24,0,0,0-.51-.6,1.72,1.72,0,0,0-.86-.22,2,2,0,0,0-1.36.5,2.45,2.45,0,0,0-.57,1.89v4Z" />
    <path class="cls-7" d="M154.59,81.05v-6.3H153.5v-1h1.09V73a3.31,3.31,0,0,1,.13-1.09,1.6,1.6,0,0,1,.63-.78,2.2,2.2,0,0,1,1.25-.29,6.16,6.16,0,0,1,1.15.12l-.19,1.07a4.61,4.61,0,0,0-.72-.07,1.07,1.07,0,0,0-.79.24,1.28,1.28,0,0,0-.24.9v.67h1.42v1h-1.42v6.3Z" />
    <path class="cls-7" d="M157.73,77.42a3.74,3.74,0,0,1,1.12-3,3.37,3.37,0,0,1,2.28-.81,3.27,3.27,0,0,1,2.45,1,3.77,3.77,0,0,1,.95,2.72,4.81,4.81,0,0,1-.42,2.2,3,3,0,0,1-1.22,1.25,3.65,3.65,0,0,1-1.76.44,3.22,3.22,0,0,1-2.46-1A3.88,3.88,0,0,1,157.73,77.42Zm1.26,0a3.14,3.14,0,0,0,.61,2.09,2,2,0,0,0,1.53.69,1.94,1.94,0,0,0,1.53-.7,3.17,3.17,0,0,0,.61-2.12,3,3,0,0,0-.62-2,1.91,1.91,0,0,0-1.52-.7,2,2,0,0,0-1.53.69A3.12,3.12,0,0,0,159,77.42Z" />
    <path class="cls-7" d="M166,81.05V73.79h1.11v1.1a2.88,2.88,0,0,1,.78-1,1.4,1.4,0,0,1,.79-.25,2.42,2.42,0,0,1,1.26.4l-.42,1.14a1.72,1.72,0,0,0-.9-.26,1.21,1.21,0,0,0-.73.24,1.37,1.37,0,0,0-.46.67,5.06,5.06,0,0,0-.2,1.44v3.8Z" />
    <path class="cls-7" d="M175.37,78.39l1.21.16a3.18,3.18,0,0,1-1,2,3,3,0,0,1-2,.7,3.14,3.14,0,0,1-2.4-1,4,4,0,0,1-.9-2.79,5,5,0,0,1,.39-2.06,2.68,2.68,0,0,1,1.18-1.32,3.47,3.47,0,0,1,1.74-.45,3,3,0,0,1,1.93.6,2.81,2.81,0,0,1,1,1.7l-1.2.19a2,2,0,0,0-.61-1.1,1.53,1.53,0,0,0-1-.37,1.92,1.92,0,0,0-1.51.66,3.22,3.22,0,0,0-.58,2.11,3.29,3.29,0,0,0,.56,2.13,1.84,1.84,0,0,0,1.47.66,1.77,1.77,0,0,0,1.21-.44A2.22,2.22,0,0,0,175.37,78.39Z" />
    <path class="cls-7" d="M182.6,78.71l1.28.16a3.18,3.18,0,0,1-1.12,1.73,3.34,3.34,0,0,1-2.08.61,3.28,3.28,0,0,1-2.52-1,3.84,3.84,0,0,1-.94-2.75,4,4,0,0,1,.95-2.84,3.17,3.17,0,0,1,2.44-1,3.06,3.06,0,0,1,2.38,1,3.91,3.91,0,0,1,.93,2.78c0,.08,0,.19,0,.33H178.5a2.77,2.77,0,0,0,.67,1.83,2,2,0,0,0,1.52.64,1.94,1.94,0,0,0,1.16-.35A2.4,2.4,0,0,0,182.6,78.71Zm-4-2h4.06a2.44,2.44,0,0,0-.47-1.37,1.86,1.86,0,0,0-1.52-.71,2,2,0,0,0-1.43.56A2.33,2.33,0,0,0,178.56,76.72Z" />
    <path class="cls-7" d="M192,80l.17,1.08a4,4,0,0,1-.93.11,2.08,2.08,0,0,1-1-.21,1.17,1.17,0,0,1-.52-.56,4.39,4.39,0,0,1-.15-1.45V74.75h-.91v-1h.91V72l1.22-.74v2.54H192v1h-1.24V79a2.34,2.34,0,0,0,.06.68.56.56,0,0,0,.22.24.77.77,0,0,0,.42.09A4.66,4.66,0,0,0,192,80Z" />
    <path class="cls-7" d="M193.2,81.05V71h1.23v3.59a2.76,2.76,0,0,1,2.17-1,3,3,0,0,1,1.41.32,1.9,1.9,0,0,1,.85.88,4.09,4.09,0,0,1,.25,1.63v4.6h-1.23v-4.6a1.9,1.9,0,0,0-.4-1.35,1.47,1.47,0,0,0-1.13-.42,2,2,0,0,0-1,.29,1.54,1.54,0,0,0-.68.77,3.44,3.44,0,0,0-.21,1.34v4Z" />
    <path class="cls-7" d="M206,78.71l1.27.16a3.13,3.13,0,0,1-1.12,1.73,3.34,3.34,0,0,1-2.08.61,3.28,3.28,0,0,1-2.52-1,3.83,3.83,0,0,1-.93-2.75,4,4,0,0,1,.94-2.84,3.18,3.18,0,0,1,2.45-1,3.09,3.09,0,0,1,2.38,1,4,4,0,0,1,.92,2.78c0,.08,0,.19,0,.33h-5.41a2.77,2.77,0,0,0,.67,1.83,2,2,0,0,0,1.52.64,1.94,1.94,0,0,0,1.16-.35A2.41,2.41,0,0,0,206,78.71Zm-4-2H206a2.44,2.44,0,0,0-.47-1.37,1.86,1.86,0,0,0-1.52-.71,2,2,0,0,0-1.42.56A2.24,2.24,0,0,0,201.92,76.72Z" />
    <path class="cls-7" d="M212.63,81.05V71h1.23v10Z" />
    <path class="cls-7" d="M220.51,80.15a4.63,4.63,0,0,1-1.32.82,3.76,3.76,0,0,1-1.35.24,2.64,2.64,0,0,1-1.84-.58,1.93,1.93,0,0,1-.64-1.5,2,2,0,0,1,.24-1,2.06,2.06,0,0,1,.63-.71,3,3,0,0,1,.89-.4,9.66,9.66,0,0,1,1.09-.19,11,11,0,0,0,2.2-.42v-.32a1.38,1.38,0,0,0-.34-1.06,2.08,2.08,0,0,0-1.41-.42,2.12,2.12,0,0,0-1.28.31,1.86,1.86,0,0,0-.61,1.07l-1.2-.16a3.06,3.06,0,0,1,.54-1.25,2.4,2.4,0,0,1,1.08-.73,4.93,4.93,0,0,1,1.65-.26,4.46,4.46,0,0,1,1.51.22,2.1,2.1,0,0,1,.86.55,1.92,1.92,0,0,1,.38.84,7.16,7.16,0,0,1,.06,1.14V78a17.94,17.94,0,0,0,.08,2.17,2.84,2.84,0,0,0,.31.87h-1.28A2.71,2.71,0,0,1,220.51,80.15Zm-.1-2.75a8.78,8.78,0,0,1-2,.47,4.09,4.09,0,0,0-1.08.25,1,1,0,0,0-.48.4,1.06,1.06,0,0,0-.17.58,1,1,0,0,0,.37.82,1.6,1.6,0,0,0,1.09.33,2.65,2.65,0,0,0,1.27-.31,2,2,0,0,0,.81-.85,3,3,0,0,0,.2-1.23Z" />
    <path class="cls-7" d="M224.9,81.05l-2.22-7.26H224L225.1,78l.43,1.56c0-.08.15-.58.38-1.5l1.16-4.25h1.26L229.42,78l.36,1.39.42-1.4,1.24-4.2h1.2l-2.27,7.26h-1.28l-1.16-4.35-.28-1.24-1.47,5.59Z" />
    <path class="cls-7" d="M233.18,78.88l1.21-.19a1.68,1.68,0,0,0,.58,1.12,2,2,0,0,0,1.3.39,1.86,1.86,0,0,0,1.26-.35,1,1,0,0,0,.41-.8.75.75,0,0,0-.36-.66,5.38,5.38,0,0,0-1.26-.42,11,11,0,0,1-1.87-.59,1.88,1.88,0,0,1-.8-.69,1.82,1.82,0,0,1-.27-1,1.93,1.93,0,0,1,.83-1.59,2.58,2.58,0,0,1,.78-.36,3.69,3.69,0,0,1,1.07-.15,4.32,4.32,0,0,1,1.5.25,2,2,0,0,1,.95.67,2.55,2.55,0,0,1,.42,1.12l-1.2.17a1.31,1.31,0,0,0-.48-.88,1.73,1.73,0,0,0-1.11-.31,2,2,0,0,0-1.21.28.8.8,0,0,0-.36.65.66.66,0,0,0,.15.43,1.07,1.07,0,0,0,.47.33c.13,0,.49.15,1.09.32a14.15,14.15,0,0,1,1.82.57,1.74,1.74,0,0,1,.81.64,1.79,1.79,0,0,1,.3,1.06,2,2,0,0,1-.36,1.15,2.32,2.32,0,0,1-1,.85,3.9,3.9,0,0,1-1.53.29,3.39,3.39,0,0,1-2.16-.59A2.71,2.71,0,0,1,233.18,78.88Z" />
    <path class="cls-7" d="M244.1,77.42a3.74,3.74,0,0,1,1.12-3,3.37,3.37,0,0,1,2.28-.81,3.27,3.27,0,0,1,2.45,1,3.77,3.77,0,0,1,1,2.72,4.81,4.81,0,0,1-.42,2.2,3,3,0,0,1-1.22,1.25,3.65,3.65,0,0,1-1.76.44,3.24,3.24,0,0,1-2.46-1A3.88,3.88,0,0,1,244.1,77.42Zm1.26,0a3.14,3.14,0,0,0,.61,2.09,2,2,0,0,0,1.53.69,1.94,1.94,0,0,0,1.53-.7,3.17,3.17,0,0,0,.61-2.12,3,3,0,0,0-.61-2,1.94,1.94,0,0,0-1.53-.7,2,2,0,0,0-1.53.69A3.12,3.12,0,0,0,245.36,77.42Z" />
    <path class="cls-7" d="M252.64,81.05v-6.3h-1.09v-1h1.09V73a3.31,3.31,0,0,1,.13-1.09,1.6,1.6,0,0,1,.63-.78,2.2,2.2,0,0,1,1.25-.29,6.25,6.25,0,0,1,1.15.12l-.19,1.07a4.61,4.61,0,0,0-.72-.07,1.09,1.09,0,0,0-.8.24,1.34,1.34,0,0,0-.23.9v.67h1.42v1h-1.42v6.3Z" />
    <path class="cls-7" d="M159,99.15a4.63,4.63,0,0,1-1.32.82,3.78,3.78,0,0,1-1.36.24,2.61,2.61,0,0,1-1.83-.58,1.94,1.94,0,0,1-.65-1.5,1.9,1.9,0,0,1,.25-1,2.06,2.06,0,0,1,.63-.71,2.88,2.88,0,0,1,.89-.4,9.25,9.25,0,0,1,1.09-.19,10.83,10.83,0,0,0,2.19-.42c0-.17,0-.27,0-.32a1.38,1.38,0,0,0-.35-1.06,2,2,0,0,0-1.4-.42,2.12,2.12,0,0,0-1.28.31A1.81,1.81,0,0,0,155.3,95l-1.21-.16a2.94,2.94,0,0,1,.55-1.25,2.4,2.4,0,0,1,1.08-.73,4.88,4.88,0,0,1,1.65-.26,4.51,4.51,0,0,1,1.51.22,2.1,2.1,0,0,1,.86.55,2,2,0,0,1,.38.84,7.16,7.16,0,0,1,.06,1.14V97a17.94,17.94,0,0,0,.08,2.17,2.6,2.6,0,0,0,.31.87h-1.29A2.7,2.7,0,0,1,159,99.15Zm-.11-2.75a8.52,8.52,0,0,1-2,.47,4.1,4.1,0,0,0-1.07.25,1,1,0,0,0-.48.4,1,1,0,0,0-.17.58,1,1,0,0,0,.37.82,1.6,1.6,0,0,0,1.09.33,2.61,2.61,0,0,0,1.26-.31,2,2,0,0,0,.82-.85,3,3,0,0,0,.19-1.23Z" />
    <path class="cls-7" d="M166,100.05V92.79h1.11v1.1a2.88,2.88,0,0,1,.78-1,1.4,1.4,0,0,1,.79-.25,2.45,2.45,0,0,1,1.27.4l-.43,1.14a1.72,1.72,0,0,0-.9-.26,1.16,1.16,0,0,0-.72.24,1.25,1.25,0,0,0-.46.67,4.73,4.73,0,0,0-.21,1.44v3.8Z" />
    <path class="cls-7" d="M170.65,91.44V90h1.23v1.41Zm0,8.61V92.79h1.23v7.26Z" />
    <path class="cls-7" d="M173.52,100.65l1.2.18a1.1,1.1,0,0,0,.42.8,2,2,0,0,0,1.25.35,2.18,2.18,0,0,0,1.32-.35,1.58,1.58,0,0,0,.62-.95,7,7,0,0,0,.09-1.58,2.52,2.52,0,0,1-2,1A2.73,2.73,0,0,1,174.1,99a4.15,4.15,0,0,1-.82-2.59,4.87,4.87,0,0,1,.37-1.92,3,3,0,0,1,1.09-1.36,3,3,0,0,1,1.68-.48,2.61,2.61,0,0,1,2.12,1v-.87h1.13v6.27a6,6,0,0,1-.34,2.41,2.49,2.49,0,0,1-1.09,1.11,3.75,3.75,0,0,1-1.85.41,3.45,3.45,0,0,1-2.09-.58A2,2,0,0,1,173.52,100.65Zm1-4.36a3.12,3.12,0,0,0,.57,2.08,1.8,1.8,0,0,0,1.42.66,1.82,1.82,0,0,0,1.42-.65,3.08,3.08,0,0,0,.58-2,3,3,0,0,0-.59-2,1.85,1.85,0,0,0-1.43-.68,1.75,1.75,0,0,0-1.39.67A2.91,2.91,0,0,0,174.54,96.29Z" />
    <path class="cls-7" d="M181.54,91.44V90h1.23v1.41Zm0,8.61V92.79h1.23v7.26Z" />
    <path class="cls-7" d="M189.35,100.05v-.92a2.25,2.25,0,0,1-2,1.08,2.83,2.83,0,0,1-1.59-.48,3.14,3.14,0,0,1-1.13-1.33,4.56,4.56,0,0,1-.4-2,5.21,5.21,0,0,1,.36-2,2.88,2.88,0,0,1,2.71-1.83,2.47,2.47,0,0,1,1.17.28,2.53,2.53,0,0,1,.83.72V90h1.23v10Zm-3.88-3.62a3.17,3.17,0,0,0,.58,2.08,1.78,1.78,0,0,0,1.39.69,1.73,1.73,0,0,0,1.37-.66,3,3,0,0,0,.57-2,3.43,3.43,0,0,0-.58-2.19,1.77,1.77,0,0,0-1.41-.7,1.71,1.71,0,0,0-1.37.67A3.3,3.3,0,0,0,185.47,96.43Z" />
    <path class="cls-7" d="M195.83,97.88l1.22-.19a1.63,1.63,0,0,0,.57,1.12,2,2,0,0,0,1.3.39,1.86,1.86,0,0,0,1.26-.35,1,1,0,0,0,.41-.8.75.75,0,0,0-.36-.66A5.38,5.38,0,0,0,199,97a11,11,0,0,1-1.87-.59,1.88,1.88,0,0,1-.8-.69,1.88,1.88,0,0,1,0-1.87,1.9,1.9,0,0,1,.6-.69,2.58,2.58,0,0,1,.78-.36,3.69,3.69,0,0,1,1.07-.15,4.28,4.28,0,0,1,1.5.25,2,2,0,0,1,.95.67,2.43,2.43,0,0,1,.42,1.12l-1.2.17a1.3,1.3,0,0,0-.47-.88,1.76,1.76,0,0,0-1.11-.31,2,2,0,0,0-1.22.28.8.8,0,0,0-.36.65.66.66,0,0,0,.15.43,1.07,1.07,0,0,0,.47.33c.13,0,.49.15,1.09.32a14.15,14.15,0,0,1,1.82.57,1.74,1.74,0,0,1,.81.64,1.79,1.79,0,0,1,.3,1.06,2,2,0,0,1-.36,1.15,2.32,2.32,0,0,1-1,.85,3.9,3.9,0,0,1-1.53.29,3.34,3.34,0,0,1-2.15-.59A2.71,2.71,0,0,1,195.83,97.88Z" />
    <path class="cls-7" d="M203.27,102.84l-.14-1.15a2.86,2.86,0,0,0,.7.11,1.38,1.38,0,0,0,.66-.14,1.12,1.12,0,0,0,.4-.38,5.24,5.24,0,0,0,.38-.92c0-.07.06-.17.11-.3l-2.76-7.27H204l1.51,4.2c.2.54.37,1.1.53,1.68.14-.56.31-1.11.5-1.65L208,92.79h1.23l-2.76,7.38a12.4,12.4,0,0,1-.69,1.65,2.51,2.51,0,0,1-.75.89,1.76,1.76,0,0,1-1,.28A2.43,2.43,0,0,1,203.27,102.84Z" />
    <path class="cls-7" d="M209.83,97.88l1.22-.19a1.63,1.63,0,0,0,.57,1.12,2,2,0,0,0,1.3.39,1.86,1.86,0,0,0,1.26-.35,1,1,0,0,0,.41-.8.75.75,0,0,0-.36-.66A5.38,5.38,0,0,0,213,97a11,11,0,0,1-1.87-.59,1.88,1.88,0,0,1-.8-.69,1.88,1.88,0,0,1,0-1.87,1.9,1.9,0,0,1,.6-.69,2.58,2.58,0,0,1,.78-.36,3.69,3.69,0,0,1,1.07-.15,4.28,4.28,0,0,1,1.5.25,2,2,0,0,1,.95.67,2.43,2.43,0,0,1,.42,1.12l-1.2.17a1.3,1.3,0,0,0-.47-.88,1.76,1.76,0,0,0-1.11-.31,2,2,0,0,0-1.22.28.8.8,0,0,0-.36.65.66.66,0,0,0,.15.43,1.07,1.07,0,0,0,.47.33c.13,0,.49.15,1.09.32a14.15,14.15,0,0,1,1.82.57,1.74,1.74,0,0,1,.81.64,1.79,1.79,0,0,1,.3,1.06,2,2,0,0,1-.36,1.15,2.32,2.32,0,0,1-1,.85,3.9,3.9,0,0,1-1.53.29,3.34,3.34,0,0,1-2.15-.59A2.71,2.71,0,0,1,209.83,97.88Z" />
    <path class="cls-7" d="M220,99l.17,1.08a4,4,0,0,1-.93.11,2.08,2.08,0,0,1-1-.21,1.17,1.17,0,0,1-.52-.56,4.39,4.39,0,0,1-.15-1.45V93.75h-.91v-1h.91V91l1.22-.74v2.54H220v1h-1.24V98a2.34,2.34,0,0,0,.06.68.56.56,0,0,0,.22.24.79.79,0,0,0,.42.09A4.66,4.66,0,0,0,220,99Z" />
    <path class="cls-7" d="M226.18,97.71l1.27.16a3.12,3.12,0,0,1-1.11,1.73,3.38,3.38,0,0,1-2.08.61,3.32,3.32,0,0,1-2.53-1,3.83,3.83,0,0,1-.93-2.75,4,4,0,0,1,.94-2.84,3.19,3.19,0,0,1,2.45-1,3.09,3.09,0,0,1,2.38,1,4,4,0,0,1,.92,2.78v.33h-5.42a2.77,2.77,0,0,0,.68,1.83,2,2,0,0,0,1.52.64,1.91,1.91,0,0,0,1.15-.35A2.41,2.41,0,0,0,226.18,97.71Zm-4-2h4.05a2.44,2.44,0,0,0-.46-1.37,1.87,1.87,0,0,0-1.53-.71,2,2,0,0,0-1.42.56A2.24,2.24,0,0,0,222.14,95.72Z" />
    <path class="cls-7" d="M229,100.05V92.79h1.1v1a2.58,2.58,0,0,1,2.2-1.19,2.39,2.39,0,0,1,1.32.34,1.72,1.72,0,0,1,.73.94,2.6,2.6,0,0,1,2.24-1.28,2.21,2.21,0,0,1,1.66.6,2.56,2.56,0,0,1,.58,1.84v5h-1.22V95.48a3.39,3.39,0,0,0-.12-1.07,1,1,0,0,0-.43-.52,1.39,1.39,0,0,0-.74-.2,1.7,1.7,0,0,0-1.27.51,2.23,2.23,0,0,0-.51,1.63v4.22h-1.23V95.33a2.06,2.06,0,0,0-.3-1.23,1.15,1.15,0,0,0-1-.41,1.84,1.84,0,0,0-1,.27,1.65,1.65,0,0,0-.64.8,4.61,4.61,0,0,0-.19,1.52v3.77Z" />
    <path class="cls-7" d="M241,100.05v-1.4h1.4v1.4Z" />
    <line class="cls-8" x1="181.32" y1="185.64" x2="430.67" y2="185.64" />
    <line class="cls-8" x1="181.78" y1="221.11" x2="372.59" y2="221.11" />
    <line class="cls-8" x1="168.13" y1="257.58" x2="427.07" y2="257.58" />
    <line class="cls-8" x1="184.48" y1="294.06" x2="426.4" y2="294.06" />
    <line class="cls-8" x1="170.92" y1="330.29" x2="437.19" y2="330.29" />
    <line class="cls-8" x1="183.74" y1="365.56" x2="417.92" y2="365.56" />
    <line class="cls-8" x1="302.26" y1="561.2" x2="333.09" y2="561.2" />
    <line class="cls-8" x1="246.19" y1="454.4" x2="296.22" y2="454.4" />
</svg>