<svg id="LdsFigRole" data-name="lds-fig-role" xmlns="http://www.w3.org/2000/svg" width="1220px" height="1060px" viewBox="0 0 610 580">
    <defs>
        <style>
        .cls-1 {
            fill: #fff;
        }

        .cls-2 {
            font-size: 12px;
        }

        .cls-2,
        .cls-4,
        .cls-5,
        .cls-6,
        .cls-7 {
            fill: #101827;
        }

        .cls-2,
        .cls-5,
        .cls-6 {
            font-family: ArialMT, Arial;
        }

        .cls-3 {
            letter-spacing: -0.07em;
        }

        .cls-4,
        .cls-5 {
            font-size: 20px;
        }

        .cls-4 {
            font-family: Arial-BoldMT, Arial;
            font-weight: 700;
        }

        .cls-6 {
            font-size: 14px;
        }

        .cls-8 {
            fill: none;
            stroke: #101827;
            stroke-linecap: square;
            stroke-miterlimit: 10;
            stroke-opacity: 0.5;
            stroke-width: 0.5px;
            stroke-dasharray: 2.2;
        }
        </style>
    </defs>
    <rect class="cls-1" width="610" height="580" /><text class="cls-2" transform="translate(4 188.64)">restrict<tspan x="0" y="36">dictate</tspan>
        <tspan x="0" y="72">filter</tspan>
        <tspan x="0" y="108">protect</tspan>
        <tspan x="0" y="144">deny</tspan>
        <tspan x="0" y="180">enforce</tspan>
    </text><text class="cls-2" transform="translate(569.97 188.64)">enable<tspan x="-54.02" y="36">listen and inspire</tspan>
        <tspan x="-6" y="72">channel</tspan>
        <tspan x="-3.32" y="108">explore</tspan>
        <tspan x="8.02" y="144">invite</tspan>
        <tspan x="-12.67" y="180">advocate</tspan>
    </text><text class="cls-2" transform="translate(4 448.9)">ensure the plan is <tspan x="0" y="18">being followed.</tspan></text><text class="cls-2" transform="translate(451.92 448.9)">promote the cross-pollination<tspan x="17.32" y="18">of ideas and experiences.</tspan></text><text class="cls-2" transform="translate(4 564.7)">adherence and consistenc<tspan class="cls-3" x="140.1" y="0">y</tspan>
        <tspan x="145.21" y="0">.</tspan>
    </text><text class="cls-2" transform="translate(485.25 564.7)">growth and innovation.</text><text class="cls-4" transform="translate(58.28 29.41)">Gatekeepers<tspan x="11.69" y="24">and rulers</tspan></text><text class="cls-4" transform="translate(447.21 29.41)">Catalysts<tspan x="-26.66" y="24">and facilitators</tspan></text><text class="cls-5" transform="translate(283.64 152.22)">They</text><text class="cls-5" transform="translate(289.22 414.05)">and</text><text class="cls-5" transform="translate(251.44 525.98)">Their goal is</text><text class="cls-6" transform="translate(425.53 81.05)">are cultivating a lean,<tspan x="9.34" y="19">adaptable system.</tspan></text>
    <path class="cls-7" d="M63.52,78.71l1.27.16a3.08,3.08,0,0,1-1.12,1.73,3.34,3.34,0,0,1-2.08.61,3.28,3.28,0,0,1-2.52-1,3.83,3.83,0,0,1-.93-2.75,4,4,0,0,1,.94-2.84,3.18,3.18,0,0,1,2.45-1,3.05,3.05,0,0,1,2.37,1,3.91,3.91,0,0,1,.93,2.78c0,.08,0,.19,0,.33H59.41a2.77,2.77,0,0,0,.67,1.83,2,2,0,0,0,1.52.64,1.94,1.94,0,0,0,1.16-.35A2.41,2.41,0,0,0,63.52,78.71Zm-4-2h4.05a2.44,2.44,0,0,0-.46-1.37,1.9,1.9,0,0,0-1.53-.71,2,2,0,0,0-1.43.56A2.27,2.27,0,0,0,59.48,76.72Z" />
    <path class="cls-7" d="M66.33,81.05V73.79h1.11v1a2.6,2.6,0,0,1,2.31-1.2,3,3,0,0,1,1.21.24,1.9,1.9,0,0,1,.82.62,2.34,2.34,0,0,1,.38.91,6.56,6.56,0,0,1,.07,1.19v4.47H71V76.63a3.47,3.47,0,0,0-.14-1.12,1.24,1.24,0,0,0-.51-.6,1.72,1.72,0,0,0-.86-.22,2,2,0,0,0-1.36.5,2.45,2.45,0,0,0-.57,1.89v4Z" />
    <path class="cls-7" d="M74.41,81.05v-6.3H73.32v-1h1.09V73a3.61,3.61,0,0,1,.13-1.09,1.6,1.6,0,0,1,.63-.78,2.22,2.22,0,0,1,1.25-.29,6.16,6.16,0,0,1,1.15.12l-.18,1.07a4.85,4.85,0,0,0-.73-.07,1.07,1.07,0,0,0-.79.24,1.28,1.28,0,0,0-.23.9v.67h1.41v1H75.64v6.3Z" />
    <path class="cls-7" d="M77.55,77.42a3.74,3.74,0,0,1,1.12-3A3.39,3.39,0,0,1,81,73.62a3.27,3.27,0,0,1,2.45,1,3.77,3.77,0,0,1,.95,2.72,4.81,4.81,0,0,1-.42,2.2,3,3,0,0,1-1.22,1.25,3.65,3.65,0,0,1-1.76.44,3.24,3.24,0,0,1-2.46-1A3.88,3.88,0,0,1,77.55,77.42Zm1.27,0a3.14,3.14,0,0,0,.6,2.09A2,2,0,0,0,81,80.2a1.93,1.93,0,0,0,1.53-.7,3.17,3.17,0,0,0,.61-2.12,3,3,0,0,0-.61-2,1.94,1.94,0,0,0-1.53-.7,2,2,0,0,0-1.53.69A3.12,3.12,0,0,0,78.82,77.42Z" />
    <path class="cls-7" d="M85.78,81.05V73.79h1.11v1.1a2.88,2.88,0,0,1,.78-1,1.4,1.4,0,0,1,.79-.25,2.48,2.48,0,0,1,1.27.4l-.43,1.14a1.72,1.72,0,0,0-.9-.26,1.21,1.21,0,0,0-.73.24,1.29,1.29,0,0,0-.45.67A4.73,4.73,0,0,0,87,77.25v3.8Z" />
    <path class="cls-7" d="M95.19,78.39l1.21.16a3.18,3.18,0,0,1-1,2,3,3,0,0,1-2,.7,3.1,3.1,0,0,1-2.39-1,3.92,3.92,0,0,1-.91-2.79,5,5,0,0,1,.39-2.06,2.7,2.7,0,0,1,1.19-1.32,3.43,3.43,0,0,1,1.73-.45,3,3,0,0,1,1.93.6,2.77,2.77,0,0,1,1,1.7l-1.2.19a1.93,1.93,0,0,0-.6-1.1,1.55,1.55,0,0,0-1-.37,1.91,1.91,0,0,0-1.51.66,3.16,3.16,0,0,0-.59,2.11,3.29,3.29,0,0,0,.56,2.13,1.85,1.85,0,0,0,1.47.66,1.77,1.77,0,0,0,1.21-.44A2.22,2.22,0,0,0,95.19,78.39Z" />
    <path class="cls-7" d="M102.43,78.71l1.27.16a3.08,3.08,0,0,1-1.12,1.73,3.34,3.34,0,0,1-2.08.61,3.28,3.28,0,0,1-2.52-1,3.83,3.83,0,0,1-.93-2.75A4,4,0,0,1,98,74.64a3.18,3.18,0,0,1,2.45-1,3.09,3.09,0,0,1,2.38,1,4,4,0,0,1,.92,2.78c0,.08,0,.19,0,.33H98.32A2.77,2.77,0,0,0,99,79.56a2,2,0,0,0,1.52.64,1.94,1.94,0,0,0,1.16-.35A2.41,2.41,0,0,0,102.43,78.71Zm-4-2h4a2.44,2.44,0,0,0-.46-1.37,1.9,1.9,0,0,0-1.53-.71A2,2,0,0,0,99,75.2,2.24,2.24,0,0,0,98.39,76.72Z" />
    <path class="cls-7" d="M111.82,80,112,81a4.17,4.17,0,0,1-.93.11,2.1,2.1,0,0,1-1-.21,1.17,1.17,0,0,1-.52-.56,4.39,4.39,0,0,1-.15-1.45V74.75h-.9v-1h.9V72l1.22-.74v2.54h1.24v1h-1.24V79a1.94,1.94,0,0,0,.07.68.49.49,0,0,0,.21.24.82.82,0,0,0,.42.09A4.47,4.47,0,0,0,111.82,80Z" />
    <path class="cls-7" d="M113,81.05V71h1.23v3.59a2.78,2.78,0,0,1,2.18-1,3,3,0,0,1,1.4.32,1.9,1.9,0,0,1,.85.88,4.09,4.09,0,0,1,.25,1.63v4.6H117.7v-4.6a1.9,1.9,0,0,0-.4-1.35,1.47,1.47,0,0,0-1.13-.42,2,2,0,0,0-1,.29,1.54,1.54,0,0,0-.68.77,3.44,3.44,0,0,0-.21,1.34v4Z" />
    <path class="cls-7" d="M125.78,78.71l1.27.16a3.08,3.08,0,0,1-1.12,1.73,3.78,3.78,0,0,1-4.6-.37,3.83,3.83,0,0,1-.93-2.75,4,4,0,0,1,.94-2.84,3.19,3.19,0,0,1,2.45-1,3.09,3.09,0,0,1,2.38,1,4,4,0,0,1,.92,2.78c0,.08,0,.19,0,.33h-5.41a2.72,2.72,0,0,0,.68,1.83,2,2,0,0,0,1.51.64,1.92,1.92,0,0,0,1.16-.35A2.41,2.41,0,0,0,125.78,78.71Zm-4-2h4.05a2.44,2.44,0,0,0-.46-1.37,1.88,1.88,0,0,0-1.53-.71,2,2,0,0,0-1.42.56A2.24,2.24,0,0,0,121.74,76.72Z" />
    <path class="cls-7" d="M132.46,81.05V71h1.23v10Z" />
    <path class="cls-7" d="M140.33,80.15A4.46,4.46,0,0,1,139,81a3.85,3.85,0,0,1-1.36.24,2.64,2.64,0,0,1-1.84-.58,1.93,1.93,0,0,1-.64-1.5,2,2,0,0,1,.88-1.68,2.83,2.83,0,0,1,.88-.4,9.66,9.66,0,0,1,1.09-.19,11,11,0,0,0,2.2-.42c0-.17,0-.27,0-.32a1.38,1.38,0,0,0-.35-1.06,2.05,2.05,0,0,0-1.4-.42,2.15,2.15,0,0,0-1.29.31,1.86,1.86,0,0,0-.61,1.07l-1.2-.16a3.06,3.06,0,0,1,.54-1.25,2.38,2.38,0,0,1,1.09-.73,4.82,4.82,0,0,1,1.64-.26,4.46,4.46,0,0,1,1.51.22,2,2,0,0,1,.86.55,1.92,1.92,0,0,1,.38.84,7.16,7.16,0,0,1,.06,1.14V78a17.94,17.94,0,0,0,.08,2.17,2.84,2.84,0,0,0,.31.87h-1.28A2.71,2.71,0,0,1,140.33,80.15Zm-.1-2.75a8.78,8.78,0,0,1-2,.47,4,4,0,0,0-1.07.25,1,1,0,0,0-.49.4,1.06,1.06,0,0,0-.17.58,1,1,0,0,0,.37.82,1.6,1.6,0,0,0,1.09.33,2.62,2.62,0,0,0,1.27-.31,1.9,1.9,0,0,0,.81-.85,3,3,0,0,0,.2-1.23Z" />
    <path class="cls-7" d="M144.72,81.05l-2.22-7.26h1.27L144.92,78l.44,1.56c0-.08.14-.58.37-1.5l1.16-4.25h1.26L149.24,78l.36,1.39L150,78l1.24-4.2h1.2l-2.27,7.26h-1.28l-1.16-4.35-.27-1.24L146,81.05Z" />
    <path class="cls-7" d="M153,78.88l1.22-.19a1.63,1.63,0,0,0,.57,1.12,2,2,0,0,0,1.31.39,1.85,1.85,0,0,0,1.25-.35,1,1,0,0,0,.41-.8.75.75,0,0,0-.36-.66,5.38,5.38,0,0,0-1.26-.42,11,11,0,0,1-1.87-.59,1.88,1.88,0,0,1-.8-.69,1.88,1.88,0,0,1,0-1.87,1.9,1.9,0,0,1,.6-.69,2.58,2.58,0,0,1,.78-.36,3.69,3.69,0,0,1,1.07-.15,4.28,4.28,0,0,1,1.5.25,2,2,0,0,1,1,.67,2.43,2.43,0,0,1,.42,1.12l-1.2.17a1.3,1.3,0,0,0-.47-.88,1.76,1.76,0,0,0-1.11-.31,2,2,0,0,0-1.21.28.78.78,0,0,0-.37.65.66.66,0,0,0,.15.43,1,1,0,0,0,.48.33c.12,0,.48.15,1.08.32a14.15,14.15,0,0,1,1.82.57,1.74,1.74,0,0,1,.81.64,1.79,1.79,0,0,1,.3,1.06,2,2,0,0,1-.36,1.15,2.32,2.32,0,0,1-1,.85,3.9,3.9,0,0,1-1.53.29,3.39,3.39,0,0,1-2.16-.59A2.75,2.75,0,0,1,153,78.88Z" />
    <path class="cls-7" d="M163.92,77.42a3.77,3.77,0,0,1,1.12-3,3.39,3.39,0,0,1,2.29-.81,3.26,3.26,0,0,1,2.44,1,3.73,3.73,0,0,1,.95,2.72,4.81,4.81,0,0,1-.42,2.2,3,3,0,0,1-1.22,1.25,3.64,3.64,0,0,1-1.75.44,3.25,3.25,0,0,1-2.47-1A3.92,3.92,0,0,1,163.92,77.42Zm1.27,0a3.14,3.14,0,0,0,.6,2.09,2,2,0,0,0,1.54.69,1.92,1.92,0,0,0,1.52-.7,3.12,3.12,0,0,0,.61-2.12,3,3,0,0,0-.61-2,1.94,1.94,0,0,0-1.52-.7,2,2,0,0,0-1.54.69A3.12,3.12,0,0,0,165.19,77.42Z" />
    <path class="cls-7" d="M172.46,81.05v-6.3h-1.09v-1h1.09V73a3.31,3.31,0,0,1,.13-1.09,1.6,1.6,0,0,1,.63-.78,2.2,2.2,0,0,1,1.25-.29,6.16,6.16,0,0,1,1.15.12l-.19,1.07a4.61,4.61,0,0,0-.72-.07,1.07,1.07,0,0,0-.79.24,1.28,1.28,0,0,0-.24.9v.67h1.42v1h-1.42v6.3Z" />
    <path class="cls-7" d="M78.86,99.15a4.63,4.63,0,0,1-1.32.82,3.76,3.76,0,0,1-1.35.24,2.64,2.64,0,0,1-1.84-.58,1.94,1.94,0,0,1-.65-1.5,2,2,0,0,1,.25-1,2.06,2.06,0,0,1,.63-.71,3,3,0,0,1,.89-.4,9.25,9.25,0,0,1,1.09-.19,11,11,0,0,0,2.2-.42v-.32a1.34,1.34,0,0,0-.35-1.06,2,2,0,0,0-1.4-.42,2.12,2.12,0,0,0-1.28.31A1.86,1.86,0,0,0,75.12,95l-1.2-.16a3.06,3.06,0,0,1,.54-1.25,2.4,2.4,0,0,1,1.08-.73,4.93,4.93,0,0,1,1.65-.26,4.46,4.46,0,0,1,1.51.22,2.1,2.1,0,0,1,.86.55,1.92,1.92,0,0,1,.38.84A7.16,7.16,0,0,1,80,95.37V97a17.94,17.94,0,0,0,.08,2.17,2.84,2.84,0,0,0,.31.87H79.11A2.71,2.71,0,0,1,78.86,99.15Zm-.1-2.75a8.78,8.78,0,0,1-2,.47,4.09,4.09,0,0,0-1.08.25,1,1,0,0,0-.48.4,1,1,0,0,0-.17.58,1,1,0,0,0,.37.82,1.6,1.6,0,0,0,1.09.33,2.58,2.58,0,0,0,1.26-.31,1.92,1.92,0,0,0,.82-.85,3,3,0,0,0,.2-1.23Z" />
    <path class="cls-7" d="M85.78,100.05V92.79h1.11v1.1a2.88,2.88,0,0,1,.78-1,1.42,1.42,0,0,1,.79-.25,2.45,2.45,0,0,1,1.27.4l-.43,1.14a1.72,1.72,0,0,0-.9-.26,1.16,1.16,0,0,0-.72.24,1.25,1.25,0,0,0-.46.67A4.73,4.73,0,0,0,87,96.25v3.8Z" />
    <path class="cls-7" d="M90.47,91.44V90H91.7v1.41Zm0,8.61V92.79H91.7v7.26Z" />
    <path class="cls-7" d="M93.34,100.65l1.2.18a1.1,1.1,0,0,0,.42.8,2,2,0,0,0,1.25.35,2.18,2.18,0,0,0,1.32-.35,1.64,1.64,0,0,0,.63-.95,8.56,8.56,0,0,0,.09-1.58,2.55,2.55,0,0,1-2,1A2.75,2.75,0,0,1,93.92,99a4.15,4.15,0,0,1-.82-2.59,4.87,4.87,0,0,1,.37-1.92,3.05,3.05,0,0,1,1.1-1.36,2.9,2.9,0,0,1,1.67-.48,2.6,2.6,0,0,1,2.12,1v-.87H99.5v6.27a6,6,0,0,1-.35,2.41,2.49,2.49,0,0,1-1.09,1.11,3.74,3.74,0,0,1-1.84.41,3.46,3.46,0,0,1-2.1-.58A2,2,0,0,1,93.34,100.65Zm1-4.36a3.12,3.12,0,0,0,.57,2.08,1.8,1.8,0,0,0,1.42.66,1.82,1.82,0,0,0,1.42-.65,3.81,3.81,0,0,0,0-4.06,1.85,1.85,0,0,0-1.43-.68,1.75,1.75,0,0,0-1.39.67A2.91,2.91,0,0,0,94.36,96.29Z" />
    <path class="cls-7" d="M101.36,91.44V90h1.23v1.41Zm0,8.61V92.79h1.23v7.26Z" />
    <path class="cls-7" d="M109.18,100.05v-.92a2.26,2.26,0,0,1-2,1.08,2.86,2.86,0,0,1-1.6-.48,3.21,3.21,0,0,1-1.13-1.33,4.56,4.56,0,0,1-.4-2,5.21,5.21,0,0,1,.36-2,2.89,2.89,0,0,1,1.09-1.35,2.85,2.85,0,0,1,1.62-.48,2.47,2.47,0,0,1,1.17.28,2.53,2.53,0,0,1,.83.72V90h1.23v10Zm-3.89-3.62a3.17,3.17,0,0,0,.58,2.08,1.79,1.79,0,0,0,1.39.69,1.73,1.73,0,0,0,1.37-.66,3,3,0,0,0,.57-2,3.37,3.37,0,0,0-.58-2.19,1.77,1.77,0,0,0-1.41-.7,1.71,1.71,0,0,0-1.37.67A3.3,3.3,0,0,0,105.29,96.43Z" />
    <path class="cls-7" d="M115.65,97.88l1.22-.19a1.71,1.71,0,0,0,.57,1.12,2,2,0,0,0,1.31.39,1.85,1.85,0,0,0,1.25-.35,1,1,0,0,0,.41-.8.75.75,0,0,0-.36-.66,5.38,5.38,0,0,0-1.26-.42,11.35,11.35,0,0,1-1.87-.59,1.85,1.85,0,0,1-.79-.69,1.73,1.73,0,0,1-.27-1,1.82,1.82,0,0,1,.22-.9,2,2,0,0,1,.6-.69,2.54,2.54,0,0,1,.79-.36,3.62,3.62,0,0,1,1.06-.15,4.28,4.28,0,0,1,1.5.25,2,2,0,0,1,1,.67,2.55,2.55,0,0,1,.43,1.12l-1.21.17a1.3,1.3,0,0,0-.47-.88,1.73,1.73,0,0,0-1.11-.31,2,2,0,0,0-1.21.28.78.78,0,0,0-.37.65.66.66,0,0,0,.15.43,1.11,1.11,0,0,0,.48.33c.12,0,.48.15,1.08.32a14.15,14.15,0,0,1,1.82.57,1.82,1.82,0,0,1,.82.64,1.86,1.86,0,0,1,.29,1.06,2,2,0,0,1-.36,1.15,2.27,2.27,0,0,1-1,.85,3.9,3.9,0,0,1-1.53.29,3.34,3.34,0,0,1-2.15-.59A2.71,2.71,0,0,1,115.65,97.88Z" />
    <path class="cls-7" d="M123.09,102.84l-.14-1.15a2.86,2.86,0,0,0,.7.11,1.35,1.35,0,0,0,.66-.14,1,1,0,0,0,.4-.38,5.24,5.24,0,0,0,.38-.92c0-.07.06-.17.11-.3l-2.76-7.27h1.33l1.51,4.2c.2.54.37,1.1.53,1.68.14-.56.31-1.11.5-1.65l1.56-4.23h1.23l-2.77,7.38a12.4,12.4,0,0,1-.69,1.65,2.41,2.41,0,0,1-.75.89,1.76,1.76,0,0,1-1,.28A2.43,2.43,0,0,1,123.09,102.84Z" />
    <path class="cls-7" d="M129.65,97.88l1.22-.19a1.71,1.71,0,0,0,.57,1.12,2,2,0,0,0,1.31.39,1.85,1.85,0,0,0,1.25-.35,1,1,0,0,0,.41-.8.75.75,0,0,0-.36-.66,5.38,5.38,0,0,0-1.26-.42,11.35,11.35,0,0,1-1.87-.59,1.85,1.85,0,0,1-.79-.69,1.73,1.73,0,0,1-.27-1,1.82,1.82,0,0,1,.22-.9,2,2,0,0,1,.6-.69,2.54,2.54,0,0,1,.79-.36,3.62,3.62,0,0,1,1.06-.15,4.28,4.28,0,0,1,1.5.25,2,2,0,0,1,.95.67,2.55,2.55,0,0,1,.43,1.12l-1.21.17a1.3,1.3,0,0,0-.47-.88,1.73,1.73,0,0,0-1.11-.31,2,2,0,0,0-1.21.28.78.78,0,0,0-.37.65.66.66,0,0,0,.15.43,1.11,1.11,0,0,0,.48.33c.12,0,.48.15,1.08.32a14.15,14.15,0,0,1,1.82.57,1.82,1.82,0,0,1,.82.64,1.86,1.86,0,0,1,.29,1.06,2,2,0,0,1-.36,1.15,2.27,2.27,0,0,1-1,.85,3.9,3.9,0,0,1-1.53.29,3.34,3.34,0,0,1-2.15-.59A2.71,2.71,0,0,1,129.65,97.88Z" />
    <path class="cls-7" d="M139.83,99,140,100a4.17,4.17,0,0,1-.93.11,2.1,2.1,0,0,1-1-.21,1.17,1.17,0,0,1-.52-.56,4.39,4.39,0,0,1-.15-1.45V93.75h-.9v-1h.9V91l1.22-.74v2.54h1.24v1h-1.24V98a1.94,1.94,0,0,0,.07.68.49.49,0,0,0,.21.24.82.82,0,0,0,.42.09A4.31,4.31,0,0,0,139.83,99Z" />
    <path class="cls-7" d="M146,97.71l1.27.16a3.12,3.12,0,0,1-1.11,1.73,3.36,3.36,0,0,1-2.08.61,3.28,3.28,0,0,1-2.52-1,3.79,3.79,0,0,1-.94-2.75,4,4,0,0,1,.95-2.84,3.16,3.16,0,0,1,2.44-1,3.07,3.07,0,0,1,2.38,1,3.9,3.9,0,0,1,.92,2.78v.33h-5.42a2.77,2.77,0,0,0,.68,1.83,2,2,0,0,0,1.52.64,1.91,1.91,0,0,0,1.15-.35A2.34,2.34,0,0,0,146,97.71Zm-4-2H146a2.44,2.44,0,0,0-.47-1.37,1.86,1.86,0,0,0-1.52-.71,2,2,0,0,0-1.43.56A2.28,2.28,0,0,0,142,95.72Z" />
    <path class="cls-7" d="M148.82,100.05V92.79h1.1v1a2.59,2.59,0,0,1,.91-.86,2.53,2.53,0,0,1,1.29-.33,2.39,2.39,0,0,1,1.32.34,1.72,1.72,0,0,1,.73.94,2.6,2.6,0,0,1,2.24-1.28,2.19,2.19,0,0,1,1.66.6,2.56,2.56,0,0,1,.58,1.84v5h-1.22V95.48a3.39,3.39,0,0,0-.12-1.07,1,1,0,0,0-.43-.52,1.39,1.39,0,0,0-.74-.2,1.7,1.7,0,0,0-1.27.51,2.23,2.23,0,0,0-.51,1.63v4.22h-1.23V95.33a2.06,2.06,0,0,0-.3-1.23,1.15,1.15,0,0,0-1-.41,1.78,1.78,0,0,0-1,.27,1.55,1.55,0,0,0-.64.8,4.32,4.32,0,0,0-.2,1.52v3.77Z" />
    <path class="cls-7" d="M160.83,100.05v-1.4h1.4v1.4Z" />
    <line class="cls-8" x1="47.96" y1="185.64" x2="562.04" y2="185.64" />
    <line class="cls-8" x1="46.26" y1="221.11" x2="508.12" y2="221.11" />
    <line class="cls-8" x1="33.8" y1="257.58" x2="553.91" y2="257.58" />
    <line class="cls-8" x1="47.46" y1="294.06" x2="557.41" y2="294.06" />
    <line class="cls-8" x1="36.58" y1="330.29" x2="571.53" y2="330.29" />
    <line class="cls-8" x1="52.34" y1="365.56" x2="549.31" y2="365.56" />
    <line class="cls-8" x1="161.79" y1="561.2" x2="473.56" y2="561.2" />
    <line class="cls-8" x1="105.61" y1="454.4" x2="442.81" y2="454.4" />
</svg>