<svg id="LdsFigHandoff" data-name="lds-fig-handoff" xmlns="http://www.w3.org/2000/svg" xmlns:xlink="http://www.w3.org/1999/xlink" width="1220px" height="340px" viewBox="0 0 610 170">
    <defs>
        <style>
        .cls-1,
        .cls-6 {
            fill: #fff;
        }

        .cls-2,
        .cls-5 {
            fill: none;
        }

        .cls-2,
        .cls-5,
        .cls-6 {
            stroke: #000;
            stroke-miterlimit: 10;
        }

        .cls-2 {
            stroke-opacity: 0.33;
            stroke-width: 1.2px;
            stroke-dasharray: 4.2;
        }

        .cls-3,
        .cls-4 {
            font-size: 10px;
        }

        .cls-3,
        .cls-4,
        .cls-7 {
            fill: #231f20;
        }

        .cls-3,
        .cls-7 {
            font-family: Arial-BoldMT, Arial;
            font-weight: 700;
        }

        .cls-4 {
            font-family: Arial-ItalicMT, Arial;
            font-style: italic;
        }

        .cls-5,
        .cls-6 {
            stroke-width: 1.2px;
        }

        .cls-7 {
            font-size: 14px;
        }

        .cls-8 {
            letter-spacing: -0.06em;
        }
        </style>
    </defs>
    <rect class="cls-1" width="610" height="170" />
    <path class="cls-2" d="M108,79.9A26.81,26.81,0,0,0,81.2,106.7h53.62A26.8,26.8,0,0,0,108,79.9Z" />
    <path class="cls-2" d="M161.79,133.51a26.8,26.8,0,0,0,26.8-26.81H135A26.81,26.81,0,0,0,161.79,133.51Z" />
    <path class="cls-2" d="M215.4,79.9a26.81,26.81,0,0,0-26.81,26.8h53.62A26.8,26.8,0,0,0,215.4,79.9Z" /><text class="cls-3" transform="translate(9.39 109.39)">UI/UX design</text><text class="cls-3" transform="translate(289.42 109.39)">Design/Development Handoff</text><text class="cls-3" transform="translate(530.91 109.39)">Implementation</text><text class="cls-4" transform="translate(289.42 130.64)">Layouts, assets,<tspan x="0" y="14">comments</tspan></text>
    <line class="cls-5" x1="81.2" y1="106.7" x2="261.48" y2="106.7" />
    <line class="cls-5" x1="440.7" y1="106.7" x2="518.39" y2="106.7" />
    <path d="M510.19,112.46a.6.6,0,0,1,.18-.83l7.74-4.93-7.74-4.93a.6.6,0,1,1,.65-1l8.53,5.44a.6.6,0,0,1,0,1L511,112.65a.66.66,0,0,1-.33.09A.59.59,0,0,1,510.19,112.46Z" />
    <rect class="cls-6" x="203.19" y="95.91" width="99.43" height="21.15" transform="translate(359.39 -146.42) rotate(90)" />
    <line class="cls-6" x1="257.95" y1="72.26" x2="248.29" y2="62.6" />
    <line class="cls-6" x1="257.95" y1="82.03" x2="248.29" y2="72.36" />
    <line class="cls-6" x1="257.95" y1="91.79" x2="248.29" y2="82.13" />
    <line class="cls-6" x1="257.95" y1="101.55" x2="248.29" y2="91.89" />
    <line class="cls-6" x1="257.95" y1="111.32" x2="248.29" y2="101.66" />
    <line class="cls-6" x1="257.95" y1="121.08" x2="248.29" y2="111.42" />
    <line class="cls-6" x1="257.95" y1="130.84" x2="248.29" y2="121.18" />
    <line class="cls-6" x1="257.95" y1="140.61" x2="248.29" y2="130.95" />
    <line class="cls-6" x1="257.95" y1="150.37" x2="248.29" y2="140.71" /><text class="cls-7" transform="translate(212.04 22.15)">
        <tspan class="cls-8">T</tspan>
        <tspan x="7.78" y="0">raditional Handoff Process</tspan>
    </text>
</svg>