<svg id="LdsFigElements" data-name="lds-fig-elements" xmlns="http://www.w3.org/2000/svg" width="1220px" height="780px" viewBox="0 0 610 390">
    <defs>
        <style>
        .cls-1 {
            fill: #fff;
        }

        .cls-12,
        .cls-2 {
            fill: none;
            stroke-miterlimit: 10;
        }

        .cls-2 {
            stroke: #231f20;
        }

        .cls-3 {
            font-size: 12px;
            font-family: Arial-BoldMT, Arial;
            font-weight: 700;
        }

        .cls-3,
        .cls-4,
        .cls-5,
        .cls-6,
        .cls-7 {
            fill: #231f20;
        }

        .cls-10,
        .cls-4,
        .cls-5,
        .cls-6,
        .cls-7 {
            font-size: 10px;
        }

        .cls-4,
        .cls-5,
        .cls-6,
        .cls-7 {
            font-family: ArialMT, Arial;
        }

        .cls-5 {
            opacity: 0.8;
        }

        .cls-6 {
            opacity: 0.6;
        }

        .cls-7 {
            opacity: 0.4;
        }

        .cls-8 {
            letter-spacing: -0.06em;
        }

        .cls-9 {
            letter-spacing: -0.07em;
        }

        .cls-10 {
            font-family: Mulish-Regular, Mulish;
        }

        .cls-11 {
            letter-spacing: -0.01em;
        }

        .cls-12 {
            stroke: #000;
            stroke-width: 1.2px;
        }
        </style>
    </defs>
    <rect class="cls-1" width="610.38" height="390" />
    <rect class="cls-2" x="229.85" y="14.34" width="149.67" height="362.73" rx="15.23" /><text class="cls-3" transform="translate(246.67 199.21)">Assets &amp; Guidelines</text><text class="cls-4" transform="translate(278.57 154.93)">Icon Library</text><text class="cls-5" transform="translate(275.51 120.39)">Logo System</text><text class="cls-6" transform="translate(275.79 85.01)">Color Palette</text><text class="cls-7" transform="translate(289.68 50.66)">Motion</text><text class="cls-4" transform="translate(286.63 241.24)">Imagery</text><text class="cls-5" transform="translate(278.56 276.11)">
        <tspan class="cls-8">T</tspan>
        <tspan x="5.56" y="0">ypography</tspan>
    </text><text class="cls-6" transform="translate(278.29 311.07)">Ergonomics</text><text class="cls-7" transform="translate(289.96 346.03)">Charts</text><text class="cls-3" transform="translate(163.76 199.21)">
        <tspan class="cls-8">T</tspan>
        <tspan x="6.67" y="0">raining</tspan>
    </text><text class="cls-3" transform="translate(59.36 199.21)">Communication</text><text class="cls-3" transform="translate(398.4 199.21)">
        <tspan class="cls-9">T</tspan>
        <tspan x="6.44" y="0">oolchain</tspan>
    </text><text class="cls-3" transform="translate(467 199.21)">Governance</text><text class="cls-10" transform="translate(112.73 248.92)">
        <tspan class="cls-11">C</tspan>
        <tspan x="6.74" y="0">ategories</tspan>
    </text><text class="cls-10" transform="translate(420.44 296.66) rotate(-0.58)">Subcategories</text>
    <line class="cls-12" x1="106.14" y1="225.26" x2="169.16" y2="225.26" />
    <path d="M114.34,231a.6.6,0,0,0-.19-.83l-7.74-4.93,7.74-4.94a.59.59,0,0,0,.19-.82.61.61,0,0,0-.83-.19L105,224.75a.6.6,0,0,0,0,1l8.54,5.44a.62.62,0,0,0,.32.09A.6.6,0,0,0,114.34,231Z" />
    <path d="M161,231a.61.61,0,0,1,.19-.83l7.74-4.93-7.74-4.94a.6.6,0,0,1-.19-.82.61.61,0,0,1,.83-.19l8.54,5.44a.6.6,0,0,1,0,1l-8.54,5.44a.62.62,0,0,1-.32.09A.6.6,0,0,1,161,231Z" />
    <line class="cls-12" x1="405.91" y1="262.52" x2="405.91" y2="325.55" />
    <path d="M400.15,270.72a.6.6,0,0,0,.83-.18l4.93-7.74,4.93,7.74a.6.6,0,0,0,1-.65l-5.43-8.53a.6.6,0,0,0-1,0L400,269.89a.58.58,0,0,0-.1.33A.59.59,0,0,0,400.15,270.72Z" />
    <path d="M400.15,317.35a.6.6,0,0,1,.83.18l4.93,7.75,4.93-7.75a.6.6,0,0,1,1,.65l-5.43,8.53a.6.6,0,0,1-1,0L400,318.18a.55.55,0,0,1-.1-.32A.6.6,0,0,1,400.15,317.35Z" />
</svg>