<svg id="LDS_Elements" data-name="LDS Elements" xmlns="http://www.w3.org/2000/svg" width="1220px" height="370px" viewBox="0 0 610 185">
    <defs>
        <style>
        	
        .cls-1 {
            fill: #fff;
        }

        .cls-2,
        .cls-3,
        .cls-4,
        .cls-5,
        .cls-6,
        .cls-7,
        .cls-8 {
            fill: #5bebc5;
        }

        .cls-2 {
            opacity: 0.6;
        }

        .cls-11,
        .cls-3 {
            opacity: 0.68;
        }

        .cls-10,
        .cls-4 {
            opacity: 0.76;
        }

        .cls-5,
        .cls-9 {
            opacity: 0.84;
        }

        .cls-6 {
            opacity: 0.92;
        }

        .cls-8 {
            opacity: 0.24;
        }

        .cls-10,
        .cls-11,
        .cls-9 {
            fill: #5784ff;
        }

        .cls-12 {
            fill: none;
            stroke: #000;
            stroke-miterlimit: 10;
            stroke-width: 1.2px;
        }

        .cls-13 {
            font-size: 10px;
            font-family: Mulish-Regular, Mulish;
        }

        .cls-14 {
            letter-spacing: -0.01em;
        }

        .cls-15 {
            letter-spacing: -0.01em;
        }

        .cls-16 {
            letter-spacing: 0em;
        }

        .cls-17 {
            letter-spacing: -0.01em;
        }

        .cls-18 {
            letter-spacing: -0.01em;
        }

        .cls-19 {
            letter-spacing: -0.01em;
        }

        .cls-20 {
            letter-spacing: 0em;
        }
        </style>
    </defs>
    <rect class="cls-1" width="610.38" height="186" />
    <rect class="cls-2" y="21.1" width="16.26" height="16.26" />
    <rect class="cls-3" x="16.26" y="21.1" width="16.26" height="16.26" />
    <rect class="cls-4" x="32.52" y="21.1" width="16.26" height="16.26" />
    <rect class="cls-3" x="48.79" y="21.1" width="16.26" height="16.26" />
    <rect class="cls-2" x="65.05" y="21.1" width="16.26" height="16.26" />
    <rect class="cls-3" y="37.36" width="16.26" height="16.26" />
    <rect class="cls-5" x="16.26" y="37.36" width="16.26" height="16.26" />
    <rect class="cls-6" x="32.52" y="37.36" width="16.26" height="16.26" />
    <rect class="cls-5" x="48.79" y="37.36" width="16.26" height="16.26" />
    <rect class="cls-3" x="65.05" y="37.36" width="16.26" height="16.26" />
    <rect class="cls-4" y="53.62" width="16.26" height="16.26" />
    <rect class="cls-6" x="16.26" y="53.62" width="16.26" height="16.26" />
    <rect class="cls-7" x="32.52" y="53.62" width="16.26" height="16.26" />
    <rect class="cls-6" x="48.79" y="53.62" width="16.26" height="16.26" />
    <rect class="cls-4" x="65.05" y="53.62" width="16.26" height="16.26" />
    <rect class="cls-3" y="69.89" width="16.26" height="16.26" />
    <rect class="cls-5" x="16.26" y="69.89" width="16.26" height="16.26" />
    <rect class="cls-6" x="32.52" y="69.89" width="16.26" height="16.26" />
    <rect class="cls-5" x="48.79" y="69.89" width="16.26" height="16.26" />
    <rect class="cls-3" x="65.05" y="69.89" width="16.26" height="16.26" />
    <rect class="cls-2" y="86.16" width="16.26" height="16.26" />
    <rect class="cls-3" x="16.26" y="86.16" width="16.26" height="16.26" />
    <rect class="cls-4" x="32.52" y="86.16" width="16.26" height="16.26" />
    <rect class="cls-3" x="48.79" y="86.16" width="16.26" height="16.26" />
    <rect class="cls-2" x="65.05" y="86.16" width="16.26" height="16.26" />
    <rect class="cls-2" x="128.96" y="14.25" width="16.26" height="16.26" />
    <rect class="cls-3" x="148.65" y="14.25" width="16.26" height="16.26" />
    <rect class="cls-4" x="168.33" y="14.25" width="16.26" height="16.26" />
    <rect class="cls-3" x="188.02" y="14.25" width="16.26" height="16.26" />
    <rect class="cls-2" x="207.7" y="14.25" width="16.26" height="16.26" />
    <rect class="cls-3" x="128.96" y="33.94" width="16.26" height="16.26" />
    <rect class="cls-5" x="148.65" y="33.94" width="16.26" height="16.26" />
    <rect class="cls-6" x="168.33" y="33.94" width="16.26" height="16.26" />
    <rect class="cls-5" x="188.02" y="33.94" width="16.26" height="16.26" />
    <rect class="cls-3" x="207.7" y="33.94" width="16.26" height="16.26" />
    <rect class="cls-4" x="128.96" y="53.62" width="16.26" height="16.26" />
    <rect class="cls-6" x="148.65" y="53.62" width="16.26" height="16.26" />
    <rect class="cls-7" x="168.33" y="53.62" width="16.26" height="16.26" />
    <rect class="cls-6" x="188.02" y="53.62" width="16.26" height="16.26" />
    <rect class="cls-4" x="207.7" y="53.62" width="16.26" height="16.26" />
    <rect class="cls-3" x="128.96" y="73.31" width="16.26" height="16.26" />
    <rect class="cls-5" x="148.65" y="73.31" width="16.26" height="16.26" />
    <rect class="cls-6" x="168.33" y="73.31" width="16.26" height="16.26" />
    <rect class="cls-5" x="188.02" y="73.31" width="16.26" height="16.26" />
    <rect class="cls-3" x="207.7" y="73.31" width="16.26" height="16.26" />
    <rect class="cls-2" x="128.96" y="93.01" width="16.26" height="16.26" />
    <rect class="cls-3" x="148.65" y="93.01" width="16.26" height="16.26" />
    <rect class="cls-4" x="168.33" y="93.01" width="16.26" height="16.26" />
    <rect class="cls-3" x="188.02" y="93.01" width="16.26" height="16.26" />
    <rect class="cls-2" x="207.7" y="93.01" width="16.26" height="16.26" />
    <rect class="cls-8" x="257.64" y="14.25" width="16.26" height="16.26" />
    <rect class="cls-8" x="277.33" y="14.25" width="16.26" height="16.26" />
    <rect class="cls-8" x="297.01" y="14.25" width="16.26" height="16.26" />
    <rect class="cls-3" x="316.7" y="14.25" width="16.26" height="16.26" />
    <rect class="cls-8" x="336.38" y="14.25" width="16.26" height="16.26" />
    <rect class="cls-3" x="257.64" y="33.94" width="16.26" height="16.26" />
    <rect class="cls-8" x="277.33" y="33.94" width="16.26" height="16.26" />
    <rect class="cls-8" x="297.01" y="33.94" width="16.26" height="16.26" />
    <rect class="cls-8" x="316.7" y="33.94" width="16.26" height="16.26" />
    <rect class="cls-8" x="336.38" y="33.94" width="16.26" height="16.26" />
    <rect class="cls-8" x="257.64" y="53.62" width="16.26" height="16.26" />
    <rect class="cls-6" x="277.33" y="53.62" width="16.26" height="16.26" />
    <rect class="cls-7" x="297.01" y="53.62" width="16.26" height="16.26" />
    <rect class="cls-8" x="316.7" y="53.62" width="16.26" height="16.26" />
    <rect class="cls-8" x="336.38" y="53.62" width="16.26" height="16.26" />
    <rect class="cls-8" x="257.64" y="73.31" width="16.26" height="16.26" />
    <rect class="cls-5" x="277.33" y="73.31" width="16.26" height="16.26" />
    <rect class="cls-8" x="297.01" y="73.31" width="16.26" height="16.26" />
    <rect class="cls-5" x="316.7" y="73.31" width="16.26" height="16.26" />
    <rect class="cls-3" x="336.38" y="73.31" width="16.26" height="16.26" />
    <rect class="cls-8" x="257.64" y="93.01" width="16.26" height="16.26" />
    <rect class="cls-8" x="277.33" y="93.01" width="16.26" height="16.26" />
    <rect class="cls-4" x="297.01" y="93.01" width="16.26" height="16.26" />
    <rect class="cls-8" x="316.7" y="93.01" width="16.26" height="16.26" />
    <rect class="cls-8" x="336.38" y="93.01" width="16.26" height="16.26" />
    <rect class="cls-8" x="386.32" y="14.25" width="16.26" height="16.26" />
    <rect class="cls-8" x="406" y="14.25" width="16.26" height="16.26" />
    <rect class="cls-8" x="425.69" y="14.25" width="16.26" height="16.26" />
    <rect class="cls-3" x="445.37" y="14.25" width="16.26" height="16.26" />
    <rect class="cls-8" x="465.06" y="14.25" width="16.26" height="16.26" />
    <rect class="cls-3" x="386.32" y="33.94" width="16.26" height="16.26" />
    <rect class="cls-9" x="406" y="33.94" width="16.26" height="16.26" />
    <rect class="cls-8" x="425.69" y="33.94" width="16.26" height="16.26" />
    <rect class="cls-9" x="445.37" y="33.94" width="16.26" height="16.26" />
    <rect class="cls-8" x="465.06" y="33.94" width="16.26" height="16.26" />
    <rect class="cls-8" x="386.32" y="53.62" width="16.26" height="16.26" />
    <rect class="cls-6" x="406" y="53.62" width="16.26" height="16.26" />
    <rect class="cls-7" x="425.69" y="53.62" width="16.26" height="16.26" />
    <rect class="cls-8" x="445.37" y="53.62" width="16.26" height="16.26" />
    <rect class="cls-10" x="465.06" y="53.62" width="16.26" height="16.26" />
    <rect class="cls-11" x="386.32" y="73.31" width="16.26" height="16.26" />
    <rect class="cls-5" x="406" y="73.31" width="16.26" height="16.26" />
    <rect class="cls-8" x="425.69" y="73.31" width="16.26" height="16.26" />
    <rect class="cls-5" x="445.37" y="73.31" width="16.26" height="16.26" />
    <rect class="cls-3" x="465.06" y="73.31" width="16.26" height="16.26" />
    <rect class="cls-8" x="386.32" y="93.01" width="16.26" height="16.26" />
    <rect class="cls-11" x="406" y="93.01" width="16.26" height="16.26" />
    <rect class="cls-4" x="425.69" y="93.01" width="16.26" height="16.26" />
    <rect class="cls-8" x="445.37" y="93.01" width="16.26" height="16.26" />
    <rect class="cls-8" x="465.06" y="93.01" width="16.26" height="16.26" />
    <rect class="cls-8" x="515" y="14.25" width="16.26" height="16.26" />
    <rect class="cls-8" x="534.68" y="14.25" width="16.26" height="16.26" />
    <rect class="cls-4" x="554.37" y="14.25" width="16.26" height="16.26" />
    <rect class="cls-3" x="574.05" y="14.25" width="16.26" height="16.26" />
    <rect class="cls-2" x="593.74" y="14.25" width="16.26" height="16.26" />
    <rect class="cls-3" x="515" y="33.94" width="16.26" height="16.26" />
    <rect class="cls-9" x="534.68" y="33.94" width="16.26" height="16.26" />
    <rect class="cls-8" x="554.37" y="33.94" width="16.26" height="16.26" />
    <rect class="cls-9" x="574.05" y="33.94" width="16.26" height="16.26" />
    <rect class="cls-3" x="593.74" y="33.94" width="16.26" height="16.26" />
    <rect class="cls-4" x="515" y="53.62" width="16.26" height="16.26" />
    <rect class="cls-6" x="534.68" y="53.62" width="16.26" height="16.26" />
    <rect class="cls-7" x="554.37" y="53.62" width="16.26" height="16.26" />
    <rect class="cls-8" x="574.05" y="53.62" width="16.26" height="16.26" />
    <rect class="cls-10" x="593.74" y="53.62" width="16.26" height="16.26" />
    <rect class="cls-11" x="515" y="73.31" width="16.26" height="16.26" />
    <rect class="cls-5" x="534.68" y="73.31" width="16.26" height="16.26" />
    <rect class="cls-8" x="554.37" y="73.31" width="16.26" height="16.26" />
    <rect class="cls-5" x="574.05" y="73.31" width="16.26" height="16.26" />
    <rect class="cls-3" x="593.74" y="73.31" width="16.26" height="16.26" />
    <rect class="cls-2" x="515" y="93.01" width="16.26" height="16.26" />
    <rect class="cls-11" x="534.68" y="93.01" width="16.26" height="16.26" />
    <rect class="cls-4" x="554.37" y="93.01" width="16.26" height="16.26" />
    <rect class="cls-3" x="574.05" y="93.01" width="16.26" height="16.26" />
    <rect class="cls-8" x="593.74" y="93.01" width="16.26" height="16.26" />
    <line class="cls-12" x1="196.82" y1="132.4" x2="283.09" y2="132.4" />
    <path d="M274.89,138.16a.6.6,0,0,1,.18-.83l7.74-4.93-7.74-4.93a.6.6,0,0,1-.18-.83.59.59,0,0,1,.82-.18l8.54,5.43a.59.59,0,0,1,.28.51.6.6,0,0,1-.28.51l-8.54,5.43a.53.53,0,0,1-.32.1A.59.59,0,0,1,274.89,138.16Z" />
    <line class="cls-12" x1="324.83" y1="132.4" x2="411.09" y2="132.4" />
    <path d="M402.89,138.16a.6.6,0,0,1,.18-.83l7.75-4.93-7.75-4.93a.6.6,0,0,1,.65-1l8.54,5.43a.6.6,0,0,1,.27.51.61.61,0,0,1-.27.51l-8.54,5.43a.55.55,0,0,1-.32.1A.6.6,0,0,1,402.89,138.16Z" />
    <line class="cls-12" x1="453.51" y1="132.4" x2="539.77" y2="132.4" />
    <path d="M531.57,138.16a.6.6,0,0,1,.18-.83l7.74-4.93-7.74-4.93a.6.6,0,0,1,.65-1l8.53,5.43a.59.59,0,0,1,.28.51.6.6,0,0,1-.28.51l-8.53,5.43a.57.57,0,0,1-.32.1A.6.6,0,0,1,531.57,138.16Z" />
    <line class="cls-12" x1="69.07" y1="132.4" x2="155.33" y2="132.4" />
    <path d="M147.13,138.16a.61.61,0,0,1,.19-.83l7.74-4.93-7.74-4.93a.61.61,0,0,1-.19-.83.6.6,0,0,1,.83-.18l8.54,5.43a.61.61,0,0,1,.28.51.62.62,0,0,1-.28.51L148,138.34a.55.55,0,0,1-.32.1A.61.61,0,0,1,147.13,138.16Z" /><text class="cls-13" transform="translate(62.21 157.52) rotate(-0.58)">B<tspan class="cls-14" x="6.81" y="0">r</tspan>
        <tspan x="10.33" y="0">eak up the monolith</tspan>
    </text><text class="cls-13" transform="translate(220.45 157.21) rotate(-0.58)">
        <tspan class="cls-15">P</tspan>
        <tspan class="cls-16" x="6.41" y="0">rioriti</tspan>
        <tspan class="cls-17" x="30.01" y="0">z</tspan>
        <tspan x="35.07" y="0">e</tspan>
    </text><text class="cls-13" transform="translate(332.32 157.37) rotate(-0.58)">Fill critical gaps</text><text class="cls-13" transform="translate(448.77 157.49) rotate(-0.58)">Expand and imp<tspan class="cls-18" x="75.32" y="0">r</tspan>
        <tspan class="cls-19" x="78.84" y="0">ov</tspan>
        <tspan class="cls-20" x="89.75" y="0">e</tspan>
    </text>
</svg>